<?xml version="1.0" encoding="utf-8"?>
<!-- Generator: Adobe Illustrator 23.0.1, SVG Export Plug-In . SVG Version: 6.00 Build 0)  -->
<svg version="1.1" id="Layer_1" xmlns="http://www.w3.org/2000/svg" xmlns:xlink="http://www.w3.org/1999/xlink" x="0px" y="0px"
	 viewBox="0 0 3497.33 1082.22" style="enable-background:new 0 0 3497.33 1082.22;" xml:space="preserve">
<style type="text/css">
	.st0{display:none;fill:#FFFFFF;stroke:#000000;}
	.st1{fill:url(#SVGID_1_);}
	.st2{fill:url(#SVGID_2_);}
	.st3{fill:none;stroke:#0373B1;stroke-width:1.4173;stroke-miterlimit:3;}
	.st4{fill:url(#SVGID_3_);}
	.st5{fill:#1D65AB;}
	.st6{fill:#1F65AA;}
	.st7{fill:#FFFFFF;}
	.st8{fill:none;}
</style>
<g>
	<polygon class="st7" points="1177.08,268.86 935.66,946.12 183.86,674.64 155.92,710.86 956.89,1001.58 1213.41,276.54 	"/>
	<g>
		<path class="st7" d="M596.55,164.15l526.89,110.84L905.94,887.38l-679.26-245.6L596.55,164.15 M589.22,144.21L197.32,650.3
			l719.53,260.16l230.44-648.84L589.22,144.21L589.22,144.21z"/>
	</g>
	<polygon class="st8" points="575.12,113.16 143.85,663.45 935.66,946.37 1189.26,240.81 	"/>
	<g>
		<g>
			<path class="st7" d="M676.09,580.21c-0.33-2.93,1.46-7.49,5.38-13.67c-17.96,4.78-36.14,7.84-54.52,9.17
				c-18.39,1.34-34.97,0.47-49.74-2.62c-16.24-3.39-29.85-9.26-40.84-17.61c-10.99-8.34-16.78-18.87-17.35-31.57
				c-0.58-12.7,4.51-25.44,15.26-38.22c13.25-15.75,33.97-29.97,62.15-42.66c28.18-12.69,56.68-20.69,85.46-24
				c28.78-3.31,53.59-2.79,74.44,1.56c15.9,3.32,29.17,8.74,39.82,16.26c10.65,7.52,17.32,16.97,19.99,28.36l27.81-20.92l49,10.23
				L770.23,545.9c-17.05,12.76-26.35,19.87-27.9,21.33c-2.35,2.79-2.48,5.58-0.42,8.37c2.07,2.8,5.76,4.75,11.09,5.86
				c9.71,2.03,25,1.67,45.86-1.09c27.57-3.56,53.06-10.74,76.47-21.53c23.41-10.79,41.08-23.27,53-37.45
				c13.93-16.56,19.12-33.65,15.58-51.29c-3.54-17.63-17.16-34-40.89-49.09c-23.73-15.09-54.32-26.54-91.78-34.36
				c-42.77-8.93-86.39-11.66-130.87-8.2c-44.48,3.46-84.96,13.27-121.44,29.44c-36.49,16.17-64.47,35.84-83.94,58.99
				c-20.39,24.25-28.23,47.17-23.5,68.74c4.74,21.57,21.99,40.38,51.79,56.43c29.79,16.04,67.08,28.74,111.85,38.09
				c47.88,9.99,91.67,13.99,131.37,12.01c39.7-1.99,72.85-7.57,99.46-16.72l49.56,10.34c-18.03,8.41-42.89,15.63-74.58,21.66
				c-31.69,6.02-65.79,8.91-102.3,8.66c-36.5-0.25-76.76-4.97-120.78-14.16c-40.55-8.46-75.57-19.08-105.08-31.86
				c-29.51-12.79-51.56-27.35-66.15-43.69c-14.6-16.35-21.81-33.16-21.66-50.43c0.36-21.88,9.64-43.63,27.84-65.27
				c20.28-24.11,48.73-45.18,85.35-63.2c44.8-22.13,93.67-36.03,146.64-41.7c52.96-5.67,108.65-2.41,167.08,9.78
				c45.27,9.45,81.72,22.96,109.34,40.53c27.62,17.57,43.47,38.46,47.57,62.68c3.31,20.81-3.47,41.26-20.36,61.33
				c-24.13,28.69-64.2,50.27-120.21,64.73c-50.09,13.04-94.87,15.43-134.37,7.19c-12.61-2.63-21.95-5.79-27.99-9.45
				C679.79,588.9,676.54,584.78,676.09,580.21L676.09,580.21z M583.37,498.25c-11.47,13.64-14.47,25.47-8.98,35.51
				c5.48,10.04,15.88,16.65,31.19,19.85c10.2,2.13,22.33,2.74,36.38,1.83c14.05-0.91,28.98-3.59,44.82-8.03
				c15.83-4.44,31.25-11.04,46.26-19.82c15-8.78,26.9-18.14,35.69-28.07c11.22-13.68,13.84-25.55,7.86-35.64
				c-5.98-10.08-17.8-16.97-35.47-20.65c-11.66-2.43-24-3.1-37.01-2.02c-13.02,1.09-27.37,4.21-43.05,9.36
				c-15.69,5.15-30.76,12.25-45.21,21.28C601.39,480.89,590.56,489.69,583.37,498.25z"/>
		</g>
		<g>
			<path class="st7" d="M676.09,580.21c-0.33-2.93,1.46-7.49,5.38-13.67c-17.96,4.78-36.14,7.84-54.52,9.17
				c-18.39,1.34-34.97,0.47-49.74-2.62c-16.24-3.39-29.85-9.26-40.84-17.61c-10.99-8.34-16.78-18.87-17.35-31.57
				c-0.58-12.7,4.51-25.44,15.26-38.22c13.25-15.75,33.97-29.97,62.15-42.66c28.18-12.69,56.68-20.69,85.46-24
				c28.78-3.31,53.59-2.79,74.44,1.56c15.9,3.32,29.17,8.74,39.82,16.26c10.65,7.52,17.32,16.97,19.99,28.36l27.81-20.92l49,10.23
				L770.23,545.9c-17.05,12.76-26.35,19.87-27.9,21.33c-2.35,2.79-2.48,5.58-0.42,8.37c2.07,2.8,5.76,4.75,11.09,5.86
				c9.71,2.03,25,1.67,45.86-1.09c27.57-3.56,53.06-10.74,76.47-21.53c23.41-10.79,41.08-23.27,53-37.45
				c13.93-16.56,19.12-33.65,15.58-51.29c-3.54-17.63-17.16-34-40.89-49.09c-23.73-15.09-54.32-26.54-91.78-34.36
				c-42.77-8.93-86.39-11.66-130.87-8.2c-44.48,3.46-84.96,13.27-121.44,29.44c-36.49,16.17-64.47,35.84-83.94,58.99
				c-20.39,24.25-28.23,47.17-23.5,68.74c4.74,21.57,21.99,40.38,51.79,56.43c29.79,16.04,67.08,28.74,111.85,38.09
				c47.88,9.99,91.67,13.99,131.37,12.01c39.7-1.99,72.85-7.57,99.46-16.72l49.56,10.34c-18.03,8.41-42.89,15.63-74.58,21.66
				c-31.69,6.02-65.79,8.91-102.3,8.66c-36.5-0.25-76.76-4.97-120.78-14.16c-40.55-8.46-75.57-19.08-105.08-31.86
				c-29.51-12.79-51.56-27.35-66.15-43.69c-14.6-16.35-21.81-33.16-21.66-50.43c0.36-21.88,9.64-43.63,27.84-65.27
				c20.28-24.11,48.73-45.18,85.35-63.2c44.8-22.13,93.67-36.03,146.64-41.7c52.96-5.67,108.65-2.41,167.08,9.78
				c45.27,9.45,81.72,22.96,109.34,40.53c27.62,17.57,43.47,38.46,47.57,62.68c3.31,20.81-3.47,41.26-20.36,61.33
				c-24.13,28.69-64.2,50.27-120.21,64.73c-50.09,13.04-94.87,15.43-134.37,7.19c-12.61-2.63-21.95-5.79-27.99-9.45
				C679.79,588.9,676.54,584.78,676.09,580.21L676.09,580.21z M583.37,498.25c-11.47,13.64-14.47,25.47-8.98,35.51
				c5.48,10.04,15.88,16.65,31.19,19.85c10.2,2.13,22.33,2.74,36.38,1.83c14.05-0.91,28.98-3.59,44.82-8.03
				c15.83-4.44,31.25-11.04,46.26-19.82c15-8.78,26.9-18.14,35.69-28.07c11.22-13.68,13.84-25.55,7.86-35.64
				c-5.98-10.08-17.8-16.97-35.47-20.65c-11.66-2.43-24-3.1-37.01-2.02c-13.02,1.09-27.37,4.21-43.05,9.36
				c-15.69,5.15-30.76,12.25-45.21,21.28C601.39,480.89,590.56,489.69,583.37,498.25z"/>
		</g>
	</g>
</g>
<g>
	<path class="st7" d="M1418.96,688.05V536.64h-44.34v-30.91h118.87v30.91h-44.34v151.41H1418.96z"/>
	<path class="st7" d="M1513.07,688.05V505.73h30.2v71.7h59.2v-71.7h30.19v182.32h-30.19v-79.72h-59.2v79.72H1513.07z"/>
	<path class="st7" d="M1798.47,688.05h-32.74l-13.03-41.27h-59.78l-12.36,41.27h-32.1l58.02-182.32h32.28L1798.47,688.05z
		 M1743.12,615.88l-20.71-67.63l-20.24,67.63H1743.12z"/>
	<path class="st7" d="M1813.59,688.05V505.73h30.19v182.32H1813.59z"/>
	<path class="st7" d="M1951.87,688.05l-35.79-182.32h30.97l22.45,125.34l27.12-125.34h35.88l26.39,127.47l22.84-127.47h30.35
		l-35.82,182.32H2044l-29.92-136.41l-29.51,136.41H1951.87z"/>
	<path class="st7" d="M2127.81,688.05V505.73h110.85v30.91H2158v40.33h75.01v30.66H2158v49.53h83.5v30.89H2127.81z"/>
	<path class="st7" d="M2266.87,505.73h59.84c16.33,0,27.82,1.49,34.45,4.48c6.64,2.99,12.24,8.24,16.79,15.79
		c4.57,7.54,6.84,16.06,6.84,25.59c0,8.79-1.96,16.72-5.88,23.8c-3.91,7.08-8.99,12.33-15.24,15.72c8.9,3.16,15.85,8.54,20.89,16.18
		c5.03,7.63,7.54,16.93,7.54,27.88c0,13.27-3.2,24.5-9.58,33.66c-6.39,9.17-13.93,14.82-22.63,16.98
		c-6.05,1.51-20.11,2.24-42.16,2.24h-50.87V505.73z M2297.06,536.16v41.99h19.83c11.9,0,19.26-0.21,22.06-0.62
		c5.13-0.83,9.13-2.99,12.03-6.51c2.89-3.5,4.34-8.28,4.34-14.3c0-5.36-1.18-9.71-3.53-13.06c-2.36-3.34-5.21-5.43-8.56-6.26
		c-3.35-0.82-12.95-1.24-28.81-1.24H2297.06z M2297.06,608.57v48.59h27.98c12.27,0,20.14-0.64,23.63-1.92
		c3.47-1.28,6.4-3.81,8.76-7.56c2.37-3.76,3.55-8.53,3.55-14.31c0-5.95-1.27-10.85-3.79-14.7c-2.53-3.83-5.89-6.48-10.08-7.93
		c-4.18-1.44-12.75-2.17-25.68-2.17H2297.06z"/>
	<path class="st7" d="M2417.37,688.05V505.73h45.1l27.2,124.6l26.79-124.6h45.49v182.32h-28.06V544.3l-29.81,143.75h-28.95
		l-29.69-143.75v143.75H2417.37z"/>
	<path class="st7" d="M2726.51,688.05h-32.74l-13.04-41.27h-59.78l-12.35,41.27h-32.1l58.02-182.32h32.28L2726.51,688.05z
		 M2671.16,615.88l-20.71-67.63l-20.25,67.63H2671.16z"/>
	<path class="st7" d="M2795.95,691.12c-36.64,0-57.03-20.83-61.17-62.51l29.49-3.54c3.31,23.28,14.14,34.91,32.51,34.91
		c9.09,0,16.25-2.37,21.46-7.15c5.21-4.76,7.82-10.64,7.82-17.69c0-4.14-0.9-7.66-2.72-10.55c-1.82-2.9-4.58-5.28-8.29-7.14
		c-3.72-1.87-12.74-4.98-27.08-9.36c-12.86-3.89-22.27-8.1-28.23-12.66c-5.97-4.55-10.72-10.53-14.25-17.94
		c-3.52-7.42-5.28-15.39-5.28-23.91c0-9.94,2.26-18.89,6.79-26.83c4.53-7.96,10.78-13.95,18.76-18.01
		c7.98-4.06,17.82-6.09,29.53-6.09c17.61,0,31.36,4.76,41.26,14.3c9.88,9.53,15.12,23.16,15.69,40.9l-30.18,1.65
		c-1.34-9.8-4.21-16.65-8.64-20.57c-4.41-3.9-10.72-5.85-18.9-5.85c-8.17,0-14.47,1.69-18.9,5.07c-4.42,3.39-6.63,7.6-6.63,12.63
		c0,4.96,2.01,9.13,6.04,12.51c4.02,3.38,13.2,7.11,27.54,11.17c15.17,4.4,26.12,9.03,32.88,13.89c6.75,4.84,11.9,11.1,15.47,18.77
		c3.56,7.66,5.34,16.96,5.34,27.9c0,15.83-4.87,29.14-14.61,39.91C2831.9,685.74,2816.66,691.12,2795.95,691.12L2795.95,691.12z"/>
	<path class="st7" d="M2915.35,688.05V536.64H2871v-30.91h118.87v30.91h-44.34v151.41H2915.35z"/>
	<path class="st7" d="M3009.45,688.05V505.73h110.86v30.91h-80.66v40.33h74.99v30.66h-74.99v49.53h83.49v30.89H3009.45z"/>
	<path class="st7" d="M3148.75,688.05V505.73h63.51c16.23,0,27.84,1.64,34.8,4.91c6.95,3.27,12.68,8.95,17.15,17.03
		c4.47,8.08,6.71,17.76,6.71,29.03c0,14.25-3.42,25.73-10.24,34.42c-6.83,8.7-16.53,14.17-29.11,16.41
		c6.46,4.65,11.81,9.75,16.03,15.27c4.23,5.52,9.98,15.42,17.25,29.68l18.1,35.57h-36.25l-21.62-39.68
		c-7.78-14.35-13.08-23.33-15.89-26.95c-2.81-3.62-5.79-6.12-8.93-7.48c-3.14-1.38-8.18-2.07-15.13-2.07h-6.21v76.18H3148.75z
		 M3178.93,582.87h22.31c13.63,0,22.3-0.6,26.03-1.81c3.72-1.2,6.72-3.62,9.04-7.27c2.31-3.65,3.48-8.49,3.48-14.54
		c0-5.8-1.16-10.46-3.48-13.98c-2.32-3.52-5.46-5.95-9.41-7.28c-2.82-0.9-10.95-1.36-24.42-1.36h-23.55V582.87z"/>
</g>
<g>
	<path class="st7" d="M1381.69,910.4l57.47-182.31h21.23l61.17,182.31h-22.63l-17.34-55.19h-62.99l-16.14,55.19H1381.69z
		 M1424.31,835.64h51.12l-15.58-50.54c-4.82-15.51-8.35-28.12-10.59-37.83c-1.95,11.7-4.69,23.32-8.24,34.85L1424.31,835.64z"/>
	<path class="st7" d="M1580.58,851.2l18.87-1.64c0.98,10.07,3.24,17.93,6.75,23.54c3.51,5.63,8.53,10.15,15.05,13.56
		c6.52,3.41,13.87,5.12,22.05,5.12c11.72,0,20.83-2.87,27.32-8.61c6.48-5.75,9.72-13.2,9.72-22.37c0-5.37-1.18-10.06-3.54-14.07
		c-2.36-4-5.92-7.28-10.68-9.85c-4.76-2.55-15.05-6.18-30.86-10.89c-14.07-4.2-24.1-8.4-30.08-12.64
		c-5.98-4.21-10.63-9.59-13.96-16.08c-3.32-6.5-4.98-13.85-4.98-22.05c0-14.75,4.77-26.8,14.29-36.15
		c9.53-9.36,22.37-14.04,38.53-14.04c11.1,0,20.81,2.2,29.13,6.59c8.32,4.4,14.79,10.7,19.38,18.91c4.6,8.21,7.06,17.87,7.4,28.98
		l-18.87,1.65c-0.99-11.84-4.54-20.62-10.63-26.34c-6.09-5.71-14.65-8.57-25.68-8.57c-11.19,0-19.73,2.51-25.61,7.51
		c-5.89,5.02-8.83,11.49-8.83,19.44c0,7.37,2.15,13.08,6.46,17.14c4.3,4.06,13.99,8.16,29.05,12.3
		c14.73,4.06,25.09,7.58,31.05,10.58c9.1,4.64,15.97,10.74,20.6,18.32c4.62,7.58,6.95,16.64,6.95,27.15
		c0,10.44-2.45,19.94-7.34,28.5c-4.88,8.59-11.53,15.1-19.93,19.58c-8.41,4.47-18.53,6.71-30.37,6.71c-18.47,0-33.19-5.6-44.16-16.8
		C1586.68,885.5,1580.99,870.33,1580.58,851.2z"/>
	<path class="st7" d="M1769.79,851.2l18.87-1.64c0.99,10.07,3.24,17.93,6.75,23.54c3.51,5.63,8.53,10.15,15.05,13.56
		c6.52,3.41,13.88,5.12,22.05,5.12c11.73,0,20.84-2.87,27.33-8.61c6.48-5.75,9.72-13.2,9.72-22.37c0-5.37-1.18-10.06-3.55-14.07
		c-2.36-4-5.92-7.28-10.68-9.85c-4.77-2.55-15.05-6.18-30.86-10.89c-14.07-4.2-24.1-8.4-30.08-12.64
		c-5.99-4.21-10.64-9.59-13.96-16.08c-3.33-6.5-4.98-13.85-4.98-22.05c0-14.75,4.76-26.8,14.28-36.15
		c9.53-9.36,22.37-14.04,38.53-14.04c11.1,0,20.81,2.2,29.14,6.59c8.32,4.4,14.78,10.7,19.38,18.91c4.59,8.21,7.06,17.87,7.39,28.98
		l-18.87,1.65c-1-11.84-4.54-20.62-10.63-26.34c-6.1-5.71-14.65-8.57-25.68-8.57c-11.2,0-19.73,2.51-25.62,7.51
		c-5.89,5.02-8.83,11.49-8.83,19.44c0,7.37,2.15,13.08,6.46,17.14c4.3,4.06,13.99,8.16,29.06,12.3
		c14.74,4.06,25.08,7.58,31.04,10.58c9.11,4.64,15.97,10.74,20.6,18.32c4.63,7.58,6.94,16.64,6.94,27.15
		c0,10.44-2.44,19.94-7.33,28.5c-4.89,8.59-11.53,15.1-19.94,19.58c-8.4,4.47-18.53,6.71-30.37,6.71c-18.47,0-33.18-5.6-44.16-16.8
		C1775.9,885.5,1770.2,870.33,1769.79,851.2z"/>
	<path class="st7" d="M1978.46,884.65c-12.19-17.38-18.27-38.37-18.27-62.98c0-31.06,6.83-54.93,20.51-71.61
		c13.67-16.69,30.7-25.04,51.08-25.04c13.17,0,25.19,3.73,36.05,11.19c10.85,7.45,19.45,18.28,25.78,32.48
		c6.34,14.2,9.51,31.12,9.51,50.75c0,27.01-6.13,48.99-18.39,65.96c-13.51,18.71-31.2,28.08-53.07,28.08
		C2009.61,913.48,1991.87,903.86,1978.46,884.65L1978.46,884.65z M1980.7,821.99c0,22.41,4.94,39.81,14.81,52.18
		c9.88,12.37,21.88,18.55,36.01,18.55c14.46,0,26.59-6.25,36.38-18.74c9.79-12.5,14.69-30.85,14.69-55.09
		c0-15.65-2.52-29.63-7.56-41.95c-3.89-9.43-9.73-16.98-17.55-22.65c-7.81-5.66-16.34-8.5-25.59-8.5c-14.88,0-27.13,6.2-36.76,18.61
		C1985.51,776.81,1980.7,796,1980.7,821.99z"/>
	<path class="st7" d="M2284.45,846.49l19.81,6.13c-4.4,20.47-12.09,35.71-23.09,45.77c-10.99,10.06-24.37,15.09-40.14,15.09
		c-13.86,0-25.71-3.38-35.54-10.14c-9.83-6.76-17.88-17.59-24.15-32.49c-6.26-14.93-9.4-32.53-9.4-52.85
		c0-20.05,3.14-37.01,9.4-50.9c6.27-13.88,14.76-24.36,25.46-31.45c10.7-7.1,22.66-10.64,35.86-10.64
		c14.43,0,26.84,4.47,37.21,13.43c10.38,8.95,17.64,22.08,21.8,39.41l-19.34,5.66c-6.64-25.17-19.96-37.74-39.95-37.74
		c-9.95,0-18.59,2.54-25.89,7.63c-7.3,5.09-13.13,13.02-17.49,23.78c-4.35,10.75-6.53,24.36-6.53,40.82
		c0,24.91,4.4,43.58,13.2,56.05c8.8,12.44,20.49,18.67,35.1,18.67c10.79,0,20.1-3.82,27.95-11.46
		C2276.54,873.61,2281.79,862.02,2284.45,846.49z"/>
	<path class="st7" d="M2382.51,910.4V728.09h19.81V910.4H2382.51z"/>
	<path class="st7" d="M2470.45,910.4l57.48-182.31h21.22l61.17,182.31h-22.63l-17.35-55.19h-62.99l-16.13,55.19H2470.45z
		 M2513.07,835.64h51.13l-15.58-50.54c-4.81-15.51-8.34-28.12-10.58-37.83c-1.95,11.7-4.69,23.32-8.24,34.85L2513.07,835.64z"/>
	<path class="st7" d="M2699.11,910.4V749.55h-49.29v-21.47h118.63v21.47h-49.54V910.4H2699.11z"/>
	<path class="st7" d="M2841.95,910.4V728.09h19.82V910.4H2841.95z"/>
	<path class="st7" d="M2959.04,884.65c-12.19-17.38-18.28-38.37-18.28-62.98c0-31.06,6.83-54.93,20.51-71.61
		c13.67-16.69,30.69-25.04,51.08-25.04c13.17,0,25.18,3.73,36.04,11.19c10.86,7.45,19.46,18.28,25.79,32.48
		c6.34,14.2,9.5,31.12,9.5,50.75c0,27.01-6.13,48.99-18.39,65.96c-13.51,18.71-31.2,28.08-53.07,28.08
		C2990.19,913.48,2972.45,903.86,2959.04,884.65L2959.04,884.65z M2961.29,821.99c0,22.41,4.93,39.81,14.81,52.18
		c9.87,12.37,21.87,18.55,36.01,18.55c14.46,0,26.59-6.25,36.38-18.74c9.8-12.5,14.69-30.85,14.69-55.09
		c0-15.65-2.52-29.63-7.56-41.95c-3.89-9.43-9.73-16.98-17.53-22.65c-7.81-5.66-16.35-8.5-25.6-8.5c-14.88,0-27.13,6.2-36.75,18.61
		C2966.09,776.81,2961.29,796,2961.29,821.99z"/>
	<path class="st7" d="M3158.18,910.4V728.09h20.35l78.48,143.59V728.09h18.87V910.4h-20.23l-78.35-143.36V910.4H3158.18z"/>
</g>
<g>
	<path class="st7" d="M1509.82,264.8c-2.65,3.78-6.4,7.22-11.26,10.31c-4.66,2.48-9.64,4.22-14.95,5.19
		c6.9,6.41,10.35,14.31,10.35,23.67v95.41h-17.49l-33.37-71.01c-1.33-2.64-3.48-4.88-6.46-6.76c-1.88-1.4-4.33-2.06-7.31-2.06
		c-1.24,0-2.15,0.06-2.83,0.18c-8.2,1.26-12.27,6.13-12.27,14.63v24.46c0.76-0.3,1.62-0.53,2.6-0.68c1-0.21,2.8-0.38,5.42-0.59
		c6.13,0,11.35,2,15.68,6.01c4.31,3.99,6.49,9.09,6.49,15.3c0,3.03-0.53,5.81-1.59,8.34c-1.03,2.53-2.77,5.01-5.19,7.47
		c-3.96,4.27-9.35,6.43-16.16,6.43c-7.48,0-13.41-2.16-17.8-6.49c-4.31-4.66-6.43-10.38-6.43-17.14v-44.84
		c0-6.78,2.24-12.23,6.81-16.51c4.1-4.3,8.75-7.08,13.94-8.22c1.56-0.3,3.8-0.62,6.72-0.92c2.95-0.35,4.74-0.55,5.42-0.67
		c3.3,0,6.34,0.26,9.05,0.82c2.72,0.53,5.28,1.45,7.73,2.82c4.42,2.04,7.82,5.69,10.15,10.97l19.9,43.43v-57.34
		c0-7.26-3.24-13.51-9.67-18.8c-6.43-5.29-14.21-7.93-23.41-7.93c-18.63,0-30.96,7.31-37.06,21.97h-17.6
		c3.18-10.88,9.84-19.54,19.93-26.04c5.1-2.95,10.59-5.22,16.45-6.81c5.86-1.59,12.29-2.39,19.28-2.39c2.65,0,5.24,0.13,7.73,0.33
		c2.5,0.2,5.18,0.71,8.07,1.44c1.54,0.31,3.1,0.68,4.66,0.97c1.76,0.53,3.6,1.09,5.49,1.6c0.65,0.21,1.59,0.35,2.83,0.35
		c3.09,0,6.25-1.18,9.47-3.54c4.33-3.42,7.81-7.84,10.46-13.21L1509.82,264.8z M1432.17,378.65c0-2.23-1.06-4.35-3.18-6.36
		c-1.65-1.83-3.95-2.78-6.81-2.78c-2.56,0-4.95,0.95-7.17,2.78c-1.44,1.35-2.32,3.48-2.65,6.36c0,1.48,0.17,2.75,0.56,3.78
		c0.38,1.03,1.09,2,2.09,2.95c1.01,0.74,2.07,1.26,3.16,1.63c1.09,0.38,2.44,0.65,4.01,0.84c1.53,0,2.81-0.18,3.8-0.5
		c1.01-0.41,2.01-1.04,3.01-1.98C1431.1,383.4,1432.17,381.22,1432.17,378.65z"/>
	<path class="st7" d="M1640.37,381.43c0,11.88-5.22,17.84-15.68,17.84h-5.84c-2.65-7.73-8.11-15.49-16.33-23.33
		c-4.25-4.13-8.67-7.55-13.35-10.25c-4.69-2.69-9.47-4.72-14.36-6.1v19.77c0,5.96-1.89,10.89-5.72,14.83
		c-3.77,3.96-9.14,5.95-15.98,5.95c-6.84,0-12.91-2.38-18.1-7.16c-4.9-5.28-7.37-11.77-7.37-19.55c0-7.41,3.12-13.92,9.32-19.52
		c3.12-2.76,6.49-4.87,10.17-6.27c3.66-1.42,7.55-2.16,11.65-2.16v-35.02c-0.76,0.35-1.68,0.59-2.69,0.73
		c-1.03,0.15-2.86,0.36-5.57,0.57c-6.16,0-11.62-2.03-16.31-6.16c-2.03-1.89-3.62-4.1-4.8-6.61c-1.18-2.49-1.77-5.34-1.77-8.51
		c0-5.9,2.18-11.09,6.49-15.57c4.36-4.42,9.85-6.69,16.54-6.69c7.35,0,13.15,2.27,17.43,6.78c4.48,4.12,6.72,9.68,6.72,16.71v54.61
		c3.77,0.32,7.84,1.33,12.11,3.05c4.28,1.75,8.82,4.2,13.59,7.36c9.38,5.68,16.98,12.46,22.88,20.36V269.71h16.98V381.43z
		 M1559.71,290.71c0-2.38-0.94-4.51-2.83-6.4c-1.89-1.91-4.16-2.86-6.75-2.86c-2.59,0-4.93,0.98-6.99,2.96
		c-1.54,1.32-2.42,3.41-2.78,6.3c0,1.41,0.18,2.63,0.59,3.63c0.35,1.01,1.09,1.98,2.19,3.03c0.97,0.69,1.97,1.24,3,1.6
		c1.04,0.35,2.36,0.61,3.98,0.85c2.59,0,4.87-0.89,6.75-2.65C1558.76,295.42,1559.71,293.27,1559.71,290.71z M1558.76,377.54v-17.95
		c-4.42,0-8.16,1.32-11.26,3.97c-2.86,2.75-4.3,5.99-4.3,9.68c0,3.51,0.76,6.37,2.23,8.57c1.48,2.23,3.78,3.5,6.9,3.8
		C1556.64,385.61,1558.76,382.93,1558.76,377.54z"/>
	<path class="st7" d="M1752.08,399.27h-16.98v-92.29c0-7.81-2.38-14.26-7.11-19.41c-4.98-4.95-11.56-7.38-19.72-7.38
		c-7.29,0-13.36,1.89-18.13,5.62c-4.84,3.77-8.61,9.23-11.35,16.36h-17.71c2.86-10.49,8.43-18.96,16.66-25.47
		c8.23-6.51,18.54-9.75,30.92-9.75c12.68,0,23.11,3.26,31.25,9.89c8.11,6.58,12.18,15.55,12.18,26.8V399.27z"/>
	<path class="st7" d="M1887.17,399.27h-16.98v-84.3c0-9.23-2.81-17.15-8.46-23.76c-6.43-7.34-15.36-11.01-26.86-11.01
		c-10.94,0-19.9,3.26-26.86,9.82c-6.99,6.55-10.46,14.23-10.46,23.05c0,2.92,0.09,5.91,0.32,8.97c0.23,3,0.65,6.18,1.3,9.42
		l4.04,20.61v8.01v2.68c0,1.68,0,3.3,0,4.88c-0.24,1.58-0.38,2.74-0.47,3.47l2.65-19.49c1.45-7.37,3.04-13.97,4.8-19.74
		c1.77-5.85,3.92-11.3,6.46-16.49c4.63-9.82,12.09-14.74,22.38-14.74c5.95,0,11.2,2.08,15.8,6.25c4.59,4.21,6.86,9.4,6.86,15.62
		c0,5.98-2.15,11.11-6.45,15.35c-4.33,4.21-9.73,6.31-16.27,6.31c-5.54,0-10.49-1.69-14.92-5.09c-2.12,5.47-4.95,14.94-8.49,28.42
		c-1.42,5.6-2.78,11-3.95,16.2c-1.24,5.23-2.39,10.38-3.48,15.55h-18.11v-20.38c0-8.82-2.06-22.61-6.13-41.51
		c-0.88-4.76-1.65-9.4-2.33-14c-0.67-4.6-1-8.17-1-10.67c0-12.28,4.87-22.88,14.59-31.85c10.73-9.28,24.27-13.9,40.63-13.9
		c15.45,0,27.89,4.3,37.3,12.93c9.4,8.67,14.09,19.16,14.09,31.53V399.27z M1848.96,322.52c0-2.45-1-4.57-2.98-6.48
		c-1.68-1.99-3.95-2.99-6.84-2.99c-2.77,0-5.16,0.99-7.16,2.99c-1.33,1.26-2.27,3.44-2.83,6.48c0,2.62,0.95,4.87,2.83,6.79
		c1,0.84,2.27,1.44,3.83,1.82c1.56,0.36,2.68,0.59,3.33,0.71c1.54,0,2.81-0.17,3.75-0.47c0.94-0.35,1.97-1,3.09-2.06
		C1847.96,327.17,1848.96,324.94,1848.96,322.52z"/>
	<path class="st7" d="M2027.12,381.43c0,11.88-5.24,17.84-15.68,17.84h-5.84c-2.68-7.73-8.13-15.49-16.36-23.33
		c-4.22-4.13-8.7-7.55-13.35-10.25c-4.66-2.69-9.43-4.72-14.33-6.1v19.77c0,5.96-1.95,10.89-5.72,14.83
		c-3.83,3.96-9.13,5.95-16.01,5.95c-6.87,0-12.88-2.38-18.13-7.16c-4.9-5.28-7.31-11.77-7.31-19.55c0-7.41,3.06-13.92,9.32-19.52
		c3.09-2.76,6.49-4.87,10.14-6.27c3.65-1.42,7.54-2.16,11.67-2.16v-35.02c-0.82,0.35-1.71,0.59-2.71,0.73
		c-1.01,0.15-2.86,0.36-5.54,0.57c-6.19,0-11.62-2.03-16.33-6.16c-2.01-1.89-3.63-4.1-4.8-6.61c-1.19-2.49-1.75-5.34-1.75-8.51
		c0-5.9,2.13-11.09,6.49-15.57c4.3-4.42,9.82-6.69,16.51-6.69c7.35,0,13.15,2.27,17.43,6.78c4.48,4.12,6.75,9.68,6.75,16.71v54.61
		c3.78,0.32,7.79,1.33,12.09,3.05c4.27,1.75,8.81,4.2,13.62,7.36c9.32,5.68,16.96,12.46,22.88,20.36V269.71h16.98V381.43z
		 M1946.45,290.71c0-2.38-0.97-4.51-2.86-6.4c-1.91-1.91-4.16-2.86-6.75-2.86c-2.59,0-4.92,0.98-6.98,2.96
		c-1.5,1.32-2.45,3.41-2.75,6.3c0,1.41,0.18,2.63,0.53,3.63c0.42,1.01,1.12,1.98,2.21,3.03c0.97,0.69,1.98,1.24,3.01,1.6
		c1.03,0.35,2.36,0.61,3.98,0.85c2.6,0,4.84-0.89,6.75-2.65C1945.48,295.42,1946.45,293.27,1946.45,290.71z M1945.51,377.54v-17.95
		c-4.42,0-8.19,1.32-11.26,3.97c-2.89,2.75-4.3,5.99-4.3,9.68c0,3.51,0.7,6.37,2.21,8.57c1.5,2.23,3.8,3.5,6.87,3.8
		C1943.33,385.61,1945.51,382.93,1945.51,377.54z"/>
	<path class="st7" d="M2161.44,379.2c0,7.18-1.47,12.34-4.45,15.5c-2.66,3.08-6.75,4.58-12.27,4.58h-5.81l-27.53-60.17l-27.36,60.17
		h-22.59v-107.5c0-6.95,2.16-12.62,6.43-16.97c4.25-4.38,10.32-6.59,18.17-6.59c6.54,0,11.97,2.27,16.27,6.78
		c4.54,4.12,6.78,9.26,6.78,15.48c0,5.78-2.15,10.79-6.49,14.98c-4.33,4.22-9.67,6.31-15.98,6.31c-2.36,0-3.98-0.06-4.93-0.19
		c-0.94-0.08-2.03-0.46-3.27-1.11v65.18l27.15-57.44l12.06-0.05l26.83,57.55v-106h16.98V379.2z M2096.34,290.71
		c0-2.38-0.97-4.51-2.95-6.3c-1.74-1.98-3.99-2.96-6.72-2.96c-2.6,0-4.96,0.98-7.02,2.96c-1.42,1.32-2.3,3.41-2.66,6.3
		c0,1.41,0.2,2.66,0.59,3.72c0.38,1,1.06,1.97,2.07,2.86c0.97,0.86,2.24,1.48,3.77,1.83c1.53,0.36,2.6,0.59,3.25,0.71
		c1.53,0,2.77-0.14,3.71-0.47c0.91-0.32,1.94-1.02,3.01-1.99C2095.37,295.48,2096.34,293.27,2096.34,290.71z"/>
	<path class="st7" d="M2161.38,455.69c0,8.19-1.95,14.42-5.89,18.51c-3.89,4.14-10.32,6.19-19.28,6.19h-41.04v-11.53
		c4.54,0,7.76-0.65,9.64-1.92c1.56-1.5,2.33-4.27,2.33-8.22v-6.96l-6.84,1.33c-6.19,0-11.32-1.95-15.39-5.81
		c-4.07-3.86-6.07-8.78-6.07-14.71c0-5.92,2.01-10.82,6.07-14.69c4.07-3.89,9.2-5.81,15.39-5.81c6.9,0,12.56,2.1,16.98,6.23
		c4.57,3.81,6.84,9,6.84,15.59v34.53h6.1c6.04,0,9.99-1.06,11.88-3.12c0.65-1.18,1.19-2.69,1.66-4.55c0.41-1.86,0.65-4.15,0.65-6.88
		v-40.49l16.98-0.16V455.69z M2109.49,432.58c0-2.51-0.83-4.54-2.42-6.1c-1.62-1.6-3.89-2.53-6.78-2.86c-2.56,0-4.66,0.79-6.28,2.35
		c-1.62,1.6-2.56,3.78-2.92,6.61c0,2.5,0.88,4.63,2.65,6.36c1.47,1.39,3.65,2.3,6.54,2.6c2.56,0,4.66-0.79,6.25-2.35
		C2108.2,437.59,2109.14,435.41,2109.49,432.58z"/>
	<path class="st7" d="M2186.38,202.43c-1.33,13.59-7.48,24.21-18.51,31.9c-4.71,3.1-10.02,5.55-15.95,7.35
		c-5.87,1.73-12.3,2.62-19.25,2.62c-5.6,0-11.2-0.59-16.75-1.87c3.12-1.7,5.63-3.71,7.54-5.98c1.95-2.29,3.43-5.07,4.43-8.37
		l-3.51,0.41c-4.98,0-9.46-1.7-13.35-5.21c-1.65-1.7-2.95-3.62-3.89-5.8c-0.94-2.15-1.42-4.48-1.42-6.9c0-4.97,1.77-9.19,5.31-12.7
		c1.8-1.56,3.83-2.83,6.1-3.78c2.27-0.97,4.69-1.45,7.25-1.45c5.87,0,10.76,1.87,14.66,5.58c3.89,3.71,5.84,8.29,5.84,13.68
		c0,4.19-0.38,7.63-1.12,10.44c-0.77,2.82-1.39,4.78-1.89,5.89c-0.48,1.13-1.36,2.63-2.66,4.58c4.4,0,8.43-0.89,12.15-2.66
		c3.78-1.71,7.37-4.27,10.89-7.66c6.04-5.81,9.04-12.51,9.04-20.06H2186.38z M2132.61,210.53c0-5.37-2.81-8.06-8.43-8.06
		c-5.69,0-8.55,2.68-8.55,8.06c0,5.17,2.86,7.75,8.55,7.75C2129.8,218.28,2132.61,215.7,2132.61,210.53z"/>
	<path class="st7" d="M2296.29,399.27h-16.98v-84.3c0-9.75-2.83-17.8-8.44-24.08c-6.16-7.16-14.85-10.69-26.06-10.69
		c-10.5,0-19.17,2.94-26.12,8.86c-6.9,5.93-10.73,11.53-11.38,16.91l-0.65,11.97c0,3.68,0.32,7.84,0.98,12.58
		c0.65,4.71,1.8,10.46,3.42,17.27c3.04,13.41,4.56,22.33,4.56,26.74c0.77-1.35,1.59-2.71,2.45-4.09c0.85-1.39,1.98-2.95,3.27-4.6
		c0.89-1.36,1.8-2.66,2.77-3.81c1.42-1.79,3.06-3.71,4.9-5.86l11.14-12.63c-4.66-0.94-8.87-3.45-12.62-7.45
		c-3.24-4.21-4.83-8.76-4.83-13.6c0-5.6,2.15-10.73,6.48-15.33c4.78-4.33,10.26-6.51,16.45-6.51c6.01,0,11.32,2.17,15.98,6.51
		c2.24,1.97,3.92,4.28,5.07,6.78c1.18,2.57,1.77,5.4,1.77,8.59c0,4.43-0.83,7.95-2.47,10.59c-0.8,1.58-1.84,3.24-3.07,4.92
		c-1.3,1.67-2.54,3.2-3.74,4.57l-19.58,23.58c-4.34,5.63-8.64,11.56-12.95,17.84c-4.3,6.28-7.37,11.35-9.14,15.24h-18.39v-18.82
		c0-4.45-0.36-9.2-1.01-14.27c-0.65-5.08-1.83-11.48-3.54-19.24c-1.71-7.77-2.98-14.28-3.75-19.62c-0.76-5.3-1.15-10.2-1.15-14.62
		c0-12.81,4.96-23.59,14.92-32.46c9.96-8.88,23.38-13.3,40.27-13.3c15.27,0,27.65,4.23,37.15,12.81
		c9.49,8.53,14.27,19.1,14.27,31.64V399.27z M2255.73,322.52c0-2.45-1.04-4.57-3.07-6.48c-1.83-1.99-4.16-2.99-6.99-2.99
		c-2.86,0-5.28,0.99-7.34,2.99c-1.59,1.38-2.53,3.51-2.89,6.48c0,1.36,0.18,2.56,0.59,3.62c0.41,1.03,1.18,2.1,2.3,3.17
		c1,0.76,2.06,1.29,3.15,1.64c1.09,0.41,2.47,0.68,4.19,0.88c2.74,0,5.04-0.88,6.99-2.53
		C2254.69,327.17,2255.73,324.94,2255.73,322.52z"/>
	<path class="st7" d="M2296.58,455.69c0,8.19-1.95,14.42-5.89,18.51c-3.89,4.14-10.32,6.19-19.28,6.19h-41.04v-11.53
		c4.54,0,7.76-0.65,9.64-1.92c1.57-1.5,2.33-4.27,2.33-8.22v-6.96l-6.84,1.33c-6.19,0-11.32-1.95-15.39-5.81
		c-4.04-3.86-6.07-8.78-6.07-14.71c0-5.92,2.04-10.82,6.07-14.69c4.07-3.89,9.2-5.81,15.39-5.81c6.9,0,12.56,2.1,16.99,6.23
		c4.56,3.81,6.83,9,6.83,15.59v34.53h6.1c6.04,0,10-1.06,11.88-3.12c0.65-1.18,1.21-2.69,1.65-4.55c0.45-1.86,0.65-4.15,0.65-6.88
		v-40.49l16.98-0.16V455.69z M2244.7,432.58c0-2.51-0.8-4.54-2.42-6.1c-1.62-1.6-3.89-2.53-6.78-2.86c-2.56,0-4.65,0.79-6.25,2.35
		c-1.65,1.6-2.6,3.78-2.95,6.61c0,2.5,0.88,4.63,2.69,6.36c1.44,1.39,3.63,2.3,6.51,2.6c2.57,0,4.66-0.79,6.28-2.35
		C2243.4,437.59,2244.37,435.41,2244.7,432.58z"/>
	<path class="st7" d="M2383.38,378.71c0,3.1-0.53,5.88-1.59,8.41c-1.03,2.5-2.77,4.98-5.19,7.4c-4.25,4.3-9.67,6.49-16.27,6.49
		c-7.55,0-13.56-2.19-18.1-6.52c-4.33-4.59-6.49-10.31-6.49-17.07V269.92h16.99v88.81c1.32-0.53,4.06-0.97,8.16-1.27
		c5.99,0,11.23,2.01,15.74,5.99C2381.14,367.46,2383.38,372.53,2383.38,378.71z M2370.64,378.57c0-2.4-0.97-4.48-2.92-6.37
		c-1.95-1.86-4.25-2.8-6.9-2.8c-2.77,0-5.16,0.94-7.15,2.8c-1.54,1.35-2.49,3.47-2.83,6.37c0,1.47,0.17,2.67,0.59,3.64
		c0.37,1.02,1.12,2.01,2.25,3.08c1,0.67,2,1.22,3.06,1.58c1.06,0.41,2.42,0.67,4.1,0.89c2.66,0,4.95-0.89,6.9-2.65
		C2369.68,383.35,2370.64,381.19,2370.64,378.57z M2448,378.71c0,3.1-0.52,5.88-1.58,8.41c-1.04,2.5-2.78,4.98-5.19,7.4
		c-4.25,4.3-9.67,6.49-16.27,6.49c-7.56,0-13.56-2.19-18.1-6.52c-2.01-2.18-3.6-4.75-4.75-7.63c-1.15-2.91-1.74-6.05-1.74-9.44
		V269.92h16.97v88.81c1.33-0.53,4.08-0.97,8.17-1.27c5.98,0,11.23,2.01,15.74,5.99C2445.77,367.46,2448,372.53,2448,378.71z
		 M2435.27,378.57c0-2.4-1-4.48-3.01-6.37c-1.65-1.86-3.93-2.8-6.81-2.8c-2.77,0-5.16,0.94-7.16,2.8c-1.54,1.44-2.48,3.56-2.84,6.37
		c0,1.47,0.19,2.67,0.59,3.64c0.39,1.02,1.13,2.01,2.25,3.08c1,0.67,2,1.22,3.07,1.58c1.06,0.41,2.41,0.67,4.09,0.89
		c2.66,0,4.95-0.89,6.9-2.65C2434.3,383.35,2435.27,381.19,2435.27,378.57z"/>
	<path class="st7" d="M2570.16,399.27h-17.46l-33.38-71.02c-1.33-2.6-3.51-4.84-6.46-6.79c-1.88-1.32-4.33-2-7.31-2
		c-1.24,0-2.18,0.05-2.83,0.15c-8.2,1.3-12.29,6.12-12.29,14.62v24.5c0.76-0.33,1.62-0.56,2.62-0.74c1-0.14,2.8-0.32,5.43-0.53
		c6.13,0,11.32,2.01,15.65,5.99c4.34,4.02,6.49,9.09,6.49,15.27c0,3.1-0.5,5.88-1.56,8.41c-1.07,2.5-2.78,4.98-5.19,7.4
		c-3.95,4.3-9.38,6.49-16.16,6.49c-7.48,0-13.45-2.19-17.8-6.54c-4.31-4.6-6.46-10.32-6.46-17.11v-44.81
		c0-6.82,2.27-12.29,6.81-16.5c4.13-4.34,8.75-7.08,13.97-8.23c1.53-0.32,3.77-0.62,6.72-0.97c2.95-0.33,4.75-0.52,5.42-0.62
		c3.31,0,6.32,0.27,9.02,0.8c2.72,0.52,5.31,1.47,7.73,2.86c4.46,2,7.84,5.65,10.14,10.93l19.89,43.46v-57.4
		c0-7.19-3.2-13.47-9.63-18.75c-6.43-5.31-14.21-7.93-23.41-7.93c-18.64,0-30.98,7.34-37.09,21.98h-17.59
		c3.21-10.91,9.87-19.57,19.96-26.04c5.07-2.94,10.55-5.21,16.44-6.8c5.87-1.63,12.3-2.38,19.29-2.38c13.98,0,25.62,3.3,34.97,9.95
		c9.38,6.64,14.07,15.57,14.07,26.74V399.27z M2508.36,378.57c0-2.31-1.03-4.4-3.15-6.37c-1.66-1.86-3.95-2.8-6.84-2.8
		c-2.54,0-4.95,0.94-7.14,2.8c-1.47,1.35-2.35,3.47-2.68,6.37c0,1.47,0.2,2.7,0.59,3.75c0.38,1.03,1.09,2.02,2.09,2.97
		c1,0.67,2.04,1.22,3.13,1.58c1.12,0.41,2.48,0.67,4.01,0.89c1.56,0,2.82-0.18,3.83-0.57c1-0.35,2-0.97,3.01-1.91
		C2507.32,383.29,2508.36,381.07,2508.36,378.57z"/>
	<path class="st7" d="M2656.97,378.71c0,3.1-0.53,5.88-1.58,8.41c-1.07,2.5-2.8,4.98-5.25,7.4c-4.2,4.3-9.61,6.49-16.27,6.49
		c-7.49,0-13.53-2.19-18.07-6.52c-4.33-4.59-6.46-10.31-6.46-17.07V269.92h16.99v88.81c1.3-0.53,4.03-0.97,8.13-1.27
		c6.02,0,11.27,2.01,15.75,5.99C2654.7,367.46,2656.97,372.53,2656.97,378.71z M2644.24,378.57c0-2.4-1-4.48-2.94-6.37
		c-1.95-1.86-4.25-2.8-6.91-2.8c-2.77,0-5.16,0.94-7.12,2.8c-1.6,1.35-2.55,3.47-2.84,6.37c0,1.47,0.18,2.67,0.55,3.64
		c0.39,1.02,1.15,2.01,2.29,3.08c0.96,0.67,1.99,1.22,3.06,1.58c1.06,0.41,2.42,0.67,4.06,0.89c2.66,0,4.96-0.89,6.91-2.65
		C2643.24,383.35,2644.24,381.19,2644.24,378.57z"/>
	<path class="st7" d="M2768.36,377.35c0,6.99-2.15,12.69-6.42,17.07c-4.25,4.37-10.32,6.58-18.17,6.58c-6.54,0-12.06-2.19-16.6-6.49
		c-4.33-4.63-6.45-9.91-6.45-15.81c0-5.83,2.18-10.84,6.66-15.03c4.42-4.16,9.7-6.23,15.8-6.23c2.36,0,3.98,0.03,4.93,0.15
		c0.94,0.09,2.02,0.51,3.26,1.12v-51.7c0-7.61-3.04-13.95-9.08-19.11c-6.04-5.14-13.44-7.72-22.16-7.72
		c-7.78,0-15.17,1.9-22.12,5.71c-6.21,3.92-10.67,9.35-13.32,16.27h-17.74c3.73-11.35,10.44-20.02,20.05-26.04
		c5.01-2.94,10.26-5.21,15.8-6.8c5.51-1.63,11.61-2.38,18.24-2.38c13.38,0,24.61,3.32,33.7,10.05c9.08,6.69,13.62,15.62,13.62,26.71
		V377.35z M2753.26,378.57c0-2.31-1.06-4.4-3.18-6.37c-1.65-1.86-3.95-2.8-6.84-2.8c-2.53,0-4.92,0.94-7.13,2.8
		c-1.48,1.35-2.35,3.47-2.66,6.37c0,1.47,0.18,2.7,0.56,3.75c0.39,1.03,1.09,2.02,2.09,2.97c1.01,0.67,2.06,1.22,3.16,1.58
		c1.08,0.41,2.44,0.67,3.98,0.89c1.56,0,2.84-0.18,3.84-0.57c1-0.35,2-0.97,3-1.91C2752.2,383.29,2753.26,381.07,2753.26,378.57z"/>
	<path class="st7" d="M2770.13,184.13c0,7.67-3.71,13.95-11.15,18.95c-7.37,4.99-15.8,7.49-25.23,7.49h-11.95
		c-1.56,0-3.09,0.03-4.66,0.09c-1.53,0.07-3.27,0.29-5.15,0.66c-2.9,0-6.2,1.64-9.98,4.97c-3.36,2.57-5.01,6.29-5.01,11.21
		c0,3.93,1.48,7.31,4.36,10.08c2.01,1.92,4.04,2.89,6.14,2.89l12.31-16.66c0.55,0.53,1.13,1.13,1.72,1.8
		c0.6,0.67,1.03,1.28,1.23,1.76l6.83,6.27c0.65-3.99,2.69-7.58,6.11-10.86c3.42-3.01,7.64-4.5,12.58-4.5c5.2,0,9.59,1.69,13.22,5.15
		c1.65,1.59,2.95,3.42,3.89,5.48c0.95,2.13,1.42,4.37,1.42,6.79c0,4.92-1.89,9.08-5.63,12.56c-1.86,1.58-4.06,2.8-6.63,3.68
		c-2.54,0.92-5.19,1.33-7.93,1.33c-2.42,0-4.86-0.3-7.28-0.83c-2.42-0.62-4.75-1.44-6.95-2.59c-4.54-2.12-8.49-5.09-11.92-8.97
		l-7.48,11.09h-9.61c-5.87,0-11.05-2.12-15.59-6.42c-4.54-4.3-6.82-10.12-6.82-17.36c0-6.98,2.83-13.22,8.52-18.82
		c5.21-4.92,10.88-7.72,16.89-8.31c4.79-0.77,8.09-1.13,9.85-1.13h4.18h6.85h6.51c5.58,0,10.24-1.13,14.04-3.47
		c3.56-2.77,5.35-6.86,5.35-12.32H2770.13z M2755.51,235.55c0-4.68-2.41-7.05-7.31-7.05c-4.87,0-7.3,2.37-7.3,7.05
		c0,4.72,2.44,7.08,7.3,7.08C2753.09,242.62,2755.51,240.26,2755.51,235.55z"/>
	<path class="st7" d="M2911.17,368.76c0,10.22-2.38,18.04-7.13,23.4c-4.66,4.74-12.97,7.11-24.95,7.11h-76.94v-12.39
		c6.52,0,11-1.01,13.44-2.94c2.42-2.07,3.63-6,3.63-11.92v-61.55c-0.79,0.35-1.68,0.59-2.65,0.73c-1,0.15-2.8,0.36-5.45,0.57
		c-6.11,0-11.47-2.03-16.11-6.16c-2-1.89-3.59-4.1-4.75-6.61c-1.14-2.49-1.73-5.34-1.73-8.51c0-5.9,2.18-11.09,6.54-15.57
		c4.37-4.42,9.97-6.69,16.69-6.69c7.43,0,13.3,2.27,17.63,6.78c4.51,4.12,6.78,9.68,6.78,16.71v94.32h33.53
		c10.35,0,16.95-1.11,19.83-3.44c3.13-2.77,4.66-8.47,4.66-17.2v-95.67h16.98V368.76z M2821.08,290.71c0-2.38-0.98-4.51-2.92-6.4
		c-1.94-1.91-4.25-2.86-6.89-2.86c-2.7,0-5.05,0.98-7.18,2.96c-1.52,1.32-2.47,3.41-2.82,6.3c0,1.41,0.17,2.63,0.59,3.63
		c0.38,1.01,1.11,1.98,2.23,3.03c1.01,0.69,2.01,1.24,3.07,1.6c1.07,0.35,2.43,0.61,4.11,0.85c2.64,0,4.95-0.89,6.89-2.65
		C2820.1,295.42,2821.08,293.27,2821.08,290.71z"/>
	<path class="st7" d="M3007.63,378.71c0,3.1-0.53,5.88-1.59,8.41c-1.03,2.5-2.78,4.98-5.19,7.4c-3.95,4.3-9.35,6.49-16.16,6.49
		c-7.48,0-13.47-2.19-17.99-6.52c-2.08-2.29-3.65-4.86-4.71-7.6c-1.04-2.71-1.54-5.92-1.54-9.49V205.8l-22.61,21.81
		c-3.99-8.84-7.46-15.62-10.47-20.39c-8.75-14.31-18.15-24.01-28.24-29.16l14.59-9.32c7.22,4.22,14.23,11.21,21.08,20.96
		c1,1.35,2.12,3.1,3.33,5.13c1.21,2.07,2.71,4.63,4.48,7.81l22.44-21.69c3.51,0,6.42,1.58,8.72,4.78c1.12,1.59,1.94,3.45,2.57,5.73
		c0.62,2.14,0.92,4.5,0.92,6.89v160.38c0.76-0.33,1.64-0.56,2.65-0.74c0.98-0.14,2.8-0.32,5.42-0.53c6.16,0,11.42,2.01,15.75,5.99
		C3005.46,367.46,3007.63,372.53,3007.63,378.71z M2995.38,378.57c0-2.31-1.07-4.4-3.2-6.37c-1.65-1.86-3.94-2.8-6.8-2.8
		c-2.81,0-5.17,0.94-7.18,2.8c-1.44,1.35-2.33,3.47-2.65,6.37c0,1.47,0.18,2.7,0.59,3.75c0.36,1.03,1.07,1.99,2.06,2.88
		c1.01,0.89,2.27,1.47,3.83,1.86c1.53,0.38,2.65,0.59,3.34,0.71c1.56,0,2.79-0.18,3.73-0.49c0.95-0.33,1.95-0.98,3.07-1.99
		C2994.31,383.29,2995.38,381.07,2995.38,378.57z"/>
	<path class="st7" d="M3139.51,399.27h-16.98V301c0-12.47-4.21-18.69-12.62-18.69c-2.65,0-4.63,2.3-5.98,6.87l-36.85,110.09h-18.61
		v-88.8c-0.75,0.35-1.65,0.59-2.65,0.73c-1,0.15-2.8,0.36-5.46,0.57c-6.1,0-11.43-2.03-16.08-6.16c-1.99-1.89-3.57-4.1-4.73-6.61
		c-1.17-2.49-1.74-5.34-1.74-8.51c0-5.9,2.19-11.09,6.55-15.57c4.4-4.42,9.93-6.69,16.69-6.69c7.42,0,13.3,2.27,17.6,6.78
		c4.54,4.12,6.81,9.7,6.81,16.76v44.38c0,2.19-0.15,5.15-0.47,8.82c-0.33,3.69-0.81,7.85-1.42,12.5c0,1.86-0.12,4.04-0.36,6.43
		c-0.22,2.45-0.59,5.16-1.05,8.07c0.65-2.92,1.15-5.19,1.48-6.78c0.32-1.57,0.71-2.9,1.14-3.95c1.74-7.22,3.34-12.67,4.76-16.36
		l20.27-62.12c2.98-9.67,10.06-14.54,21.32-14.54c8.79,0,15.69,2.39,20.63,7.14c2.54,2.3,4.45,5.31,5.78,9
		c1.3,3.68,1.98,8.22,1.98,13.58V399.27z M3050.35,290.71c0-2.38-0.96-4.51-2.91-6.4c-1.95-1.91-4.26-2.86-6.91-2.86
		c-2.68,0-5.07,0.98-7.16,2.96c-1.56,1.32-2.51,3.41-2.83,6.3c0,1.41,0.2,2.63,0.59,3.63c0.38,1.01,1.13,1.98,2.24,3.03
		c1,0.69,2.03,1.24,3.07,1.6c1.05,0.35,2.42,0.61,4.09,0.85c2.65,0,4.96-0.89,6.91-2.65
		C3049.39,295.42,3050.35,293.27,3050.35,290.71z"/>
	<path class="st7" d="M3268.33,368.76c0,10.44-2.37,18.12-7.08,23.11c-4.7,4.93-13.01,7.4-24.94,7.4h-61.39v-45.74
		c0-6.57,1.6-11.84,4.78-15.85c1.58-1.7,4.56-3.83,8.9-6.49c-4.84-1.26-8.84-3.4-12.08-6.45c-3.28-3.36-4.9-7.58-4.9-12.65V291.7
		c0-7.13,2.12-12.84,6.37-17.09c4.27-4.27,10.31-6.4,18.18-6.4c6.44,0,11.86,2.27,16.28,6.78c4.54,4.12,6.82,9.26,6.82,15.48
		c0,5.78-2.3,10.82-6.84,15.13c-2.24,2.09-4.54,3.65-7.01,4.66c-2.43,1.04-5.32,1.51-8.64,1.51c-4.01,0-6.73-0.44-8.17-1.3
		c0,3.64,1.89,6.95,5.72,9.91c4.15,2.8,9.85,4.21,17.04,4.21h10.26v13.24h-10.64c-12.7,0-19.07,5.51-19.07,16.66v31.54h35.02
		c10.3,0,16.87-1.11,19.75-3.44c3.1-2.77,4.66-8.47,4.66-17.2v-95.67h16.99V368.76z M3206.52,290.71c0-2.38-0.97-4.51-2.92-6.4
		c-1.95-1.91-4.24-2.86-6.93-2.86c-2.66,0-5.01,0.98-7.14,2.96c-1.56,1.32-2.5,3.41-2.82,6.3c0,1.41,0.17,2.63,0.59,3.63
		c0.35,1.01,1.12,1.98,2.23,3.03c1.01,0.69,2,1.24,3.07,1.6c1.06,0.35,2.42,0.61,4.07,0.85c2.69,0,4.98-0.89,6.93-2.65
		C3205.56,295.42,3206.52,293.27,3206.52,290.71z"/>
</g>
</svg>
