<?xml version="1.0" encoding="utf-8"?>
<!-- Generator: Adobe Illustrator 23.0.1, SVG Export Plug-In . SVG Version: 6.00 Build 0)  -->
<svg version="1.1"
	 id="Layer_1" xmlns:anim="urn:oasis:names:tc:opendocument:xmlns:animation:1.0" xmlns:ooo="http://xml.openoffice.org/svg/export" xmlns:presentation="http://sun.com/xmlns/staroffice/presentation" xmlns:smil="http://www.w3.org/2001/SMIL20/"
	 xmlns="http://www.w3.org/2000/svg" xmlns:xlink="http://www.w3.org/1999/xlink" x="0px" y="0px" viewBox="0 0 92.1 33.7"
	 style="enable-background:new 0 0 92.1 33.7;" xml:space="preserve">
<style type="text/css">
	.st0{clip-path:url(#SVGID_2_);}
	.st1{fill-rule:evenodd;clip-rule:evenodd;fill:#FFFFFF;}
</style>
<g>
	<g id="id2">
		<g id="bg-id2">
		</g>
		<g id="bo-id2">
		</g>
	</g>
</g>
<g>
	<g>
		<g id="container-id1">
			<g>
				<defs>
					<rect id="SVGID_1_" width="92.1" height="33.7"/>
				</defs>
				<clipPath id="SVGID_2_">
					<use xlink:href="#SVGID_1_"  style="overflow:visible;"/>
				</clipPath>
				<g id="id1" class="st0">
					<g>
						<g>
							<g id="id3">
								<path class="st1" d="M2.6,15.2l0.1,0.3c-0.1-0.1-0.3-0.4-0.4-0.6c0.7,1.3,1.5,2.7,2.4,4.1L5,19.4l0.2,0.3l0.1,0.1h0v0v0
									c0.1,0.1,0.2,0.2,0.3,0.3c0.1,0.2,0.3,0.3,0.4,0.3C6,20.5,6,20.6,6.1,20.6c0,0,0.1,0,0.1-0.1c0-0.1,0-0.2,0-0.3
									c0-0.1-0.1-0.2-0.1-0.2c0-0.1,0-0.1,0-0.1c0-0.2,0-0.3,0-0.4c0,0,0,0,0-0.1v0l0-0.1L6,19.1L5.4,18l0.4,0.9
									c-0.2-0.5-0.5-0.9-0.7-1.3l0.1,0.2c-0.8-1.5-2-3.5-2.8-4.4S1.5,13,2.2,14.5L2.6,15.2z"/>
							</g>
						</g>
						<g>
							<g id="id4">
								<path class="st1" d="M3.7,18.2c-0.5-0.9-0.9-1.8-1.4-2.6l-0.1-0.2l-0.1,0.1h0.1c0.6,0.7,1.4,2,2.2,3.1L4.6,19
									c0.1,0.2,0.2,0.3,0.3,0.3c0.1,0.1,0-0.3-0.3-0.9l-0.4-0.7c-0.9-1.6-2.4-4-3.2-4.7c-0.2-0.2-0.1,0.1-0.2,0.1
									c-0.1,0,0.1,0.6,0.6,1.4c0.5,0.8,1,1.4,1.1,1.4l0.2,0.4l-0.2-0.3c0.2,0.2,0.7,0.9,1,1.4l0.5,0.8l-0.1-0.6l-0.3-0.4l0,0.1
									c-0.5-0.7-1-1.4-1.6-2.3l-0.8-1c-0.2-0.3-0.3-0.2-0.1,0.1l0.2,0.5l-0.1-0.2c0.6,1.1,1.3,2.3,2,3.4c0.1,0.2,0.2,0.4,0.3,0.5
									C3.8,18.5,3.8,18.4,3.7,18.2z"/>
							</g>
						</g>
						<g>
							<g id="id5">
								<path class="st1" d="M1.3,14.4c-0.1-0.2-0.2-0.4-0.4-0.7l-0.1-0.1L1,14C1.2,14.3,1.3,14.4,1.3,14.4z"/>
							</g>
						</g>
						<g>
							<g id="id6">
								<path class="st1" d="M0.9,13.6l-0.1-0.2L0.9,13.6L0.9,13.6L0.9,13.6z"/>
							</g>
						</g>
						<g>
							<g id="id7">
								<path class="st1" d="M26.4,9.6c1.4-1.5,3.1-2.9,4.8-4.2c1.8-1.3,3.6-2.4,5.6-3.3C37,2.1,37.2,2.1,37.2,2c0,0-0.1,0-0.2,0.1
									c-2,0.9-3.9,2-5.7,3.2C29.5,6.6,27.9,8.1,26.4,9.6c-0.1,0-0.2,0.1-0.2,0.1C26.3,9.8,26.4,9.8,26.4,9.6z"/>
							</g>
						</g>
						<g>
							<g id="id8">
								<path class="st1" d="M55.7,2.9C55.6,2.8,55.6,2.8,55.7,2.9C55.8,2.9,55.9,3,56,3c0.1,0.1,0.1,0,0-0.1
									C55.9,2.9,55.8,2.9,55.7,2.9z"/>
							</g>
						</g>
						<g>
							<g id="id9">
								<path class="st1" d="M0.6,17.7L1.2,18L0.6,17.7L0.6,17.7z M1.7,15.9c0-0.1-0.1-0.1-0.1-0.2L1.7,15.9z M1,14.6l0.1,0.1
									C1,14.7,1,14.7,1,14.6z M1.2,14.8L1.2,14.8l0.1,0.1L1.2,14.8z M5.1,20.7c0.1,0.3,0.2,0.6,0.3,0.9c0.1,0.2,0.3,0.4,0.4,0.6
									C6,22.6,6.2,23,6.4,23.4l0.3-0.5c-0.1,0,0-0.1,0.1-0.2l0.1-0.2l-0.4,0.8l-0.5-0.9C5.6,21.7,5.3,21.2,5.1,20.7z M22,16
									c-0.1,0.2-0.3,0.5-0.4,0.7l0,0.1v0c0,0,0,0,0,0l-0.1-0.1l-0.2-0.3L20.9,16c-0.2-0.3-0.4-0.6-0.6-1l0.4,0.6l0.4,0.6l0.2,0.3
									l0.1,0.2l0,0.1v0l0,0l0-0.1C21.7,16.5,21.9,16.2,22,16z M3.5,19.9l-0.1-0.3L3.5,19.9z M6.3,23.6L6.3,23.6l0.1,0.2L6.5,24
									c0,0,0.1,0,0.1,0L6.5,24L6.3,23.6z M54.5,3.8c-0.5-0.1-1-0.3-1.5-0.3c-0.1,0-0.2-0.1-0.3-0.1c0,0-0.1,0-0.3,0
									c-1.9-0.3-4-0.5-6-0.4c-2.1,0.1-4.1,0.5-6,1.2c0,0-0.1,0.1-0.1,0.1c-0.3,0.2-0.8,0.4-1.3,0.6L38.7,5C37,5.7,35.4,6.5,34,7.5
									c-0.3,0.2-0.6,0.5-1,0.8c-1.2,1-2.3,2.1-3.3,3.2c0.1-0.1,0.1-0.1,0.1-0.1c0,0.1-0.2,0.3-0.5,0.7l-0.4,0.5
									c0.4-0.4,0.9-0.9,1.3-1.3c0.1-0.1,0.1-0.1,0.2-0.2c0.5-0.5,1-0.9,1.5-1.4c2.3-2,4.7-3.6,7.3-4.7c2.6-1.1,5.4-1.7,8.2-1.8
									c0.1,0,0.2,0,0.3,0c0.1,0,0.1,0-0.1,0c-1.8,0.1-3.4,0.4-5,0.9c-1.6,0.5-3.2,1.2-4.9,2.1c-2,1.1-3.9,2.5-5.6,4.1
									c-1.7,1.6-3.2,3.4-4.6,5.3c-0.3,0.4-0.6,0.9-0.9,1.3l-0.2,0.3l-0.2,0.3L26,17.8c-0.3,0.5-0.6,0.9-0.8,1.3
									c-0.3,0.5-0.5,0.9-0.8,1.4l-0.8,1.5l-1.5,3.1L21.9,25l-0.1-0.1c0,0,0-0.1-0.1-0.1l-0.3-0.4l-0.6-0.8l-1.2-1.7l-2.4-3.4
									l-0.6-0.9l-0.3-0.4L16.2,17l-0.7-0.9l-0.3-0.5c-0.1-0.1-0.3-0.3-0.2-0.3l-0.1-0.1c-0.1-0.1-0.1-0.1-0.2-0.1
									c0,0.1,0,0.2,0,0.2l0,0v0l-0.1,0.2l-0.2,0.5l-0.9,1.9l-1.8,4.1l-3.4,7.7c-0.4,1-0.8,1.9-1.2,2.7c-1.1-1.8-2-3.4-2.7-4.7
									c-0.7-1.3-1.1-2.2-1.2-2.6c-0.1-0.3,0.1-0.2,0.4,0.1c0.3,0.3,0.7,0.8,1.2,1.5l-0.6-1l-0.9-1.5c-0.4-0.7-0.8-1.4-1.1-1.9
									c-0.1-0.3-0.3-0.5-0.4-0.8c-0.1-0.1-0.1-0.1-0.1-0.1l0-0.1c0-0.1-0.1-0.1-0.1-0.2l-0.3-0.7c-0.3-0.9-0.9-2.4-1.1-3.1
									l0.2,0.1l-0.1-0.2c-0.3-0.6-0.4-1-0.4-1.2h0.1c0.2,0.1,0.5,0.3,0.8,0.6c0,0,0.1,0,0.2,0.1c-0.1-0.4-0.1-0.7,0.2-0.5
									c-0.1-0.2,0-0.2,0.1,0c0.1,0.1,0.1,0.2,0.2,0.3c0-0.1-0.1-0.2-0.1-0.4l-0.2-0.3L0.8,15c-0.2-0.4-0.3-0.7-0.3-0.7
									c-0.1-0.6-0.1-0.6,0-0.5c0,0,0,0.1,0.1,0.1l-0.3-0.5c-0.1-0.1-0.1-0.2-0.1-0.2c0,0,0,0,0-0.1c0,0,0,0,0,0
									c0.2,0.2,0.2,0.2,0.2,0.2c0.1,0,0.1,0.1,0.1,0.1l0.3,0.4L1,14.2l0.1,0.1l0,0.2v-0.1l0.1,0.3l-0.1-0.3
									c0.4,0.6,0.4,0.6,0.5,0.9C1.8,15.4,2,15.7,2,15.7c0,0,0,0,0,0L2.8,17c0,0.1,0.1,0.1,0.1,0.2c0,0.1,0.1,0.2,0.2,0.3l0.2,0.3
									l0.1,0.1v0l0.2,0.3l0.1,0.1l0.9,1.2l0.2,0.3l0.1,0.1l0,0.1c0,0,0,0.1,0,0.1s0-0.1,0-0.1l-0.1-0.1c0-0.1,0.1,0,0-0.1
									c-0.8-1.5-1.8-3.1-2.7-4.7c-0.2-0.3-0.3-0.5-0.3-0.6s0.2,0.1,0.3,0.4c0.5,0.7,1.1,1.5,1.6,2.4c0.3,0.4,0.6,0.9,0.9,1.3
									L5,19.2l0.3,0.6c0.3,0.5,0.6,1.1,1,1.9l0-0.1c0.1-0.3,0.3-0.6,0.5-0.9h0l0.1-0.2l0,0c-0.1,0-0.1,0.1-0.1,0.1l-0.1,0.1
									c-0.1,0.3-0.3,0.6-0.4,0.7c-0.2-0.5-0.4-0.9-0.5-1.2c-0.1-0.2-0.1-0.3-0.2-0.4l0-0.1v0l0,0l0-0.1l-0.1-0.2L5,18.6
									c-0.1-0.2-0.2-0.4-0.2-0.4c0,0,0.2,0.2,0.3,0.5l0.5,0.7l0.1,0.1v0l0,0l0,0.1c0.1,0.1,0.1,0.1,0.2,0.2
									C6,20,6.1,20.2,6.2,20.5c0.1-0.1,0.3-0.3,0.5-0.5c0-0.1,0.1-0.1,0.1-0.2c0,0,0.1-0.1,0.1-0.1l0.1-0.1l0,0v0h0v0l0,0
									c0,0,0,0,0,0h0l-0.1,0.1c0,0,0.1-0.1,0.1-0.1l0.2-0.3c0.1-0.2,0.2-0.3,0.3-0.5l-0.2,0.1c0.6-1.2,1.1-2.4,1.7-3.5
									c0.3-0.6,0.5-1.2,0.8-1.8l0.6-1.3l0.7-1.4l0.2-0.4c0.6-1.6,1.3-3.3,2.2-5.3l-0.9,1.9c0.4-0.9,0.8-1.8,1.2-2.7
									c0.3,0.5,0.7,1,1,1.5c1.3,1.9,2.7,3.9,3.8,5.6l0.4,0.7c0.1,0.2,0.3,0.5,0.3,0.5c0.1,0.2,0.3,0.5,0.4,0.7
									c0.3,0.5,0.5,0.8,0.6,1.2l0.3,0.3l0.1,0.2l0.3,0.4l0.3,0.4l0.1,0.2l0.1,0.1l0,0v0l0,0c0.1-0.3,0.3-0.5,0.4-0.8
									c0.1-0.1,0.1-0.3,0.2-0.4l0.1-0.2l0.1-0.1l0.1-0.2c0.9-1.4,2-2.7,3-3.9c0.2-0.2,0.3-0.4,0.4-0.4c0.1,0-0.1,0.1-0.2,0.3
									c-1.1,1.3-2.1,2.6-3,4l-0.2,0.2l0,0.1l0,0l0,0.1l-0.1,0.2c-0.1,0.1-0.2,0.3-0.3,0.4c-0.2,0.3-0.3,0.6-0.5,1l0,0.1
									c0,0,0,0.1,0,0l-0.1-0.1l-0.1-0.2l0.1,0.2l0.1,0.1c0,0,0,0,0,0l0-0.1c0.3-0.5,0.6-1,0.9-1.5l0.4-0.6
									c0.2-0.3,0.4-0.6,0.6-0.8c0.4-0.6,0.9-1.1,1.3-1.7c0.3-0.3,0.5-0.6,0.8-1c0.3-0.3,0.5-0.6,0.8-0.9c1.4-1.5,2.9-2.9,4.6-4.2
									c1.6-1.2,3.5-2.4,5.4-3.3c1.7-0.8,3.4-1.4,5.1-1.9c1.7-0.4,3.5-0.7,5.5-0.8c2.7-0.1,5.2,0.3,7.7,1c2.4,0.6,4.8,1.6,7,2.7
									C62.4,4,63,4.3,63,4.5c0,0.1-0.4-0.1-1-0.4c-2.4-1.2-4.9-2.2-7.5-2.8c-2.6-0.7-5.3-1-8.1-0.8c-2.7,0.1-5.5,0.7-8,1.7
									c-2.6,1-5,2.4-7.2,4.1c-0.9,0.7-1.8,1.4-2.7,2.2c0,0,0,0,0.1,0c0,0,0,0.1-0.1,0.3c0.9-0.9,2-1.7,3.1-2.5
									c1.4-1.2,3-2.2,4.7-3c1.7-0.9,3.6-1.6,5.6-2c2.7-0.6,5.3-0.6,7.9-0.3C52.8,1.2,56,2,59,3.3c0.1,0.1,0.2,0.1,0.3,0.1
									c0,0-0.1,0-0.2,0c-2-0.8-4.2-1.5-6.5-1.9c0.3,0.1,0.5,0.2,0.5,0.3c-0.1,0.1-0.3,0.1-0.8,0c0.5,0.1,1,0.2,1.5,0.3
									c0.3,0.1,0.5,0.2,0.5,0.2c0,0-0.3,0-0.5-0.1c-2-0.5-4.1-0.9-6.2-0.9c-2.5,0-5,0.4-7.4,1.2c0.4-0.1,0.6-0.1,0.8-0.1
									c0.4-0.1,0.7-0.2,1.1-0.3c1.7-0.4,3.5-0.7,5.3-0.7c1.8,0,3.6,0.2,5.3,0.5c3.6,0.7,6.9,2.2,10,3.9c0.1,0.1,0.2,0.1,0.2,0.2
									c0,0-0.1,0-0.2-0.1c-1.9-1.1-3.8-2-5.9-2.8v0c0.1,0,0.1,0.1,0,0c-0.1,0-0.3-0.1-0.3-0.1c-0.1-0.1-0.1-0.1,0-0.1
									c-2-0.7-3.9-1.1-5.9-1.4c-2-0.3-4-0.3-6,0c1.9-0.2,3.7-0.2,5.6,0C51.9,2,53.7,2.4,55.5,3c0.4,0.1,0.8,0.2,1.2,0.4
									c0.1,0,0.2,0.1,0.3,0.1s-0.1,0-0.2,0l-0.3-0.1c0.7,0.2,1.1,0.5,1.1,0.6c-0.1,0.1-0.7-0.1-1.3-0.4c-1.8-0.6-3.7-1.1-5.6-1.4
									c-0.2,0-0.4,0-0.6-0.1c-0.2,0-0.4,0-0.6,0c2.9,0.3,5.8,1.2,8.5,2.3c0.2,0.1,0.4,0.2,0.4,0.2c0,0-0.2,0-0.5-0.1
									c-2.4-0.9-4.9-1.6-7.5-1.9c-2.6-0.3-5.2-0.3-7.7,0.3C41.1,3.4,39.5,4,38,4.8l0.6-0.3c2.5-1,5-1.7,7.6-1.8
									c2.6-0.2,5.1,0,7.8,0.7c0.1,0,0.2,0.1,0.3,0.1c0,0-0.1,0-0.2,0c-1.3-0.4-2.6-0.6-3.8-0.7c-1.2-0.1-2.5-0.1-3.8,0
									c-2.2,0.1-4.2,0.6-6,1.3c1.9-0.6,3.9-1,5.8-1.2c2-0.1,4,0,6,0.4c0.2,0,0.3,0.1,0.5,0.1c0,0,0,0,0.1,0c0.5,0.1,1,0.2,1.6,0.3
									c0.1,0,0.2,0.1,0.3,0.1C54.7,3.8,54.6,3.8,54.5,3.8z"/>
							</g>
						</g>
						<g>
							<g id="id10">
								<path class="st1" d="M41.5,15.4l-1.6-5.5h1.4l1,3.8l1-3.8h1.2l-1.7,5.5v2.7h-1.3V15.4z"/>
							</g>
						</g>
						<g>
							<g id="id11">
								<path class="st1" d="M46,16.3c0,0.6,0.3,0.8,0.7,0.8c0.4,0,0.7-0.2,0.7-0.8v-4.5c0-0.6-0.3-0.8-0.7-0.8
									c-0.4,0-0.7,0.2-0.7,0.8V16.3z M44.7,11.9c0-1.3,0.7-2,2-2c1.3,0,2,0.7,2,2v4.3c0,1.3-0.7,2-2,2c-1.3,0-2-0.7-2-2V11.9z"/>
							</g>
						</g>
						<g>
							<g id="id12">
								<path class="st1" d="M50.7,9.9v6.3c0,0.6,0.3,0.8,0.7,0.8c0.4,0,0.7-0.2,0.7-0.8V9.9h1.2v6.3c0,1.3-0.7,2-2,2
									c-1.2,0-1.9-0.7-1.9-2V9.9H50.7z"/>
							</g>
						</g>
						<g>
							<g id="id13">
								<path class="st1" d="M55.3,12.2v5.9h-1.2V10h1.6l1.3,4.9V10h1.2v8.2h-1.4L55.3,12.2z"/>
							</g>
						</g>
						<g>
							<g id="id14">
								<path class="st1" d="M61.1,13.6h1.8v2.6c0,1.3-0.7,2-1.9,2c-1.3,0-2-0.8-2-2v-4.3c0-1.3,0.7-2,2-2c1.2,0,1.9,0.7,1.9,2v0.8
									h-1.2v-0.9c0-0.6-0.3-0.8-0.7-0.8c-0.4,0-0.7,0.2-0.7,0.8v4.5c0,0.6,0.3,0.8,0.7,0.8c0.4,0,0.7-0.2,0.7-0.8v-1.5h-0.6V13.6z
									"/>
							</g>
						</g>
						<g>
							<g id="id15">
								<path class="st1" d="M34.1,22.1l-0.4,3.1h-1.2l-0.7-5.9h0.9l0.5,4.6l0.4-4.6h0.9L35,24l0.5-4.6h0.8l-0.7,5.9h-1.2L34.1,22.1
									z"/>
							</g>
						</g>
						<g>
							<g id="id16">
								<path class="st1" d="M37.6,21.8H39v0.8h-1.3v1.7h1.7v0.9h-2.6v-5.9h2.6v0.9h-1.7V21.8z"/>
							</g>
						</g>
						<g>
							<g id="id17">
								<path class="st1" d="M40.8,22.6v1.8h0.5c0.3,0,0.5-0.1,0.5-0.6v-0.5c0-0.6-0.2-0.7-0.6-0.7H40.8z M40.8,20.2v1.5h0.4
									c0.4,0,0.6-0.1,0.6-0.6v-0.3c0-0.4-0.1-0.6-0.5-0.6H40.8z M42.6,20.7v0.2c0,0.6-0.2,1-0.6,1.2c0.5,0.2,0.7,0.7,0.7,1.3v0.5
									c0,0.9-0.5,1.4-1.4,1.4h-1.5v-5.9h1.4C42.2,19.3,42.6,19.8,42.6,20.7z"/>
							</g>
						</g>
						<g>
							<g id="id18">
								<path class="st1" d="M45.2,23.5l0.6-4.1h1.3v5.9h-0.9V21l-0.7,4.2h-0.9l-0.7-4.1v4.1h-0.8v-5.9h1.3L45.2,23.5z"/>
							</g>
						</g>
						<g>
							<g id="id19">
								<path class="st1" d="M48.7,23.4h0.9l-0.5-3L48.7,23.4z M50.9,25.2h-1l-0.2-1.1h-1.1l-0.1,1.1h-0.9l0.9-5.9h1.4L50.9,25.2z"
									/>
							</g>
						</g>
						<g>
							<g id="id20">
								<path class="st1" d="M52.5,19.2c0.9,0,1.4,0.5,1.4,1.5v0.2H53v-0.3c0-0.4-0.2-0.6-0.5-0.6c-0.3,0-0.5,0.2-0.5,0.6
									c0,1.2,1.8,1.4,1.8,3.1c0,0.9-0.5,1.5-1.4,1.5c-0.9,0-1.4-0.6-1.4-1.5v-0.3H52v0.4c0,0.5,0.2,0.6,0.5,0.6
									c0.3,0,0.5-0.1,0.5-0.6c0-1.2-1.8-1.4-1.8-3.1C51.1,19.8,51.6,19.2,52.5,19.2z"/>
							</g>
						</g>
						<g>
							<g id="id21">
								<path class="st1" d="M54.1,19.3H57v0.9h-1v5h-0.9v-5h-1V19.3z"/>
							</g>
						</g>
						<g>
							<g id="id22">
								<path class="st1" d="M58.4,21.8h1.2v0.8h-1.2v1.7H60v0.9h-2.6v-5.9H60v0.9h-1.6V21.8z"/>
							</g>
						</g>
						<g>
							<g id="id23">
								<path class="st1" d="M61.4,20.2V22h0.4c0.4,0,0.6-0.1,0.6-0.6v-0.6c0-0.4-0.1-0.6-0.5-0.6H61.4z M62.4,25.2
									c0-0.1-0.1-0.2-0.1-0.7v-1c0-0.5-0.2-0.7-0.6-0.7h-0.3v2.4h-0.9v-5.9h1.4c1,0,1.4,0.4,1.4,1.3v0.5c0,0.6-0.2,1-0.6,1.2
									c0.5,0.2,0.6,0.6,0.6,1.2v0.9c0,0.3,0,0.5,0.1,0.7H62.4z"/>
							</g>
						</g>
						<g>
							<g id="id24">
								<path class="st1" d="M52.4,30.2V31c0,0.9-0.5,1.4-1.4,1.4c-0.9,0-1.4-0.5-1.4-1.4v-3.1c0-0.9,0.5-1.5,1.4-1.5
									c0.9,0,1.4,0.5,1.4,1.5v0.6h-0.9v-0.6c0-0.4-0.2-0.6-0.5-0.6c-0.3,0-0.5,0.1-0.5,0.6V31c0,0.4,0.2,0.6,0.5,0.6
									c0.3,0,0.5-0.2,0.5-0.6v-0.9H52.4z"/>
							</g>
						</g>
						<g>
							<g id="id25">
								<path class="st1" d="M53.8,30.5h0.9l-0.5-3L53.8,30.5z M56,32.4h-1l-0.2-1h-1.1l-0.1,1h-0.9l1-5.9H55L56,32.4z"/>
							</g>
						</g>
						<g>
							<g id="id26">
								<path class="st1" d="M58.3,30.7l0.7-4.2h1.3v5.9h-0.9v-4.2l-0.7,4.2h-0.9l-0.7-4.2v4.2h-0.8v-5.9h1.1L58.3,30.7z"/>
							</g>
						</g>
						<g>
							<g id="id27">
								<path class="st1" d="M61.9,27.3v2h0.5c0.3,0,0.5-0.1,0.5-0.5v-0.9c0-0.4-0.2-0.6-0.5-0.6H61.9z M63.7,27.9v0.8
									c0,0.9-0.5,1.4-1.4,1.4h-0.5v2.2h-0.9v-5.9h1.4C63.2,26.5,63.7,27,63.7,27.9z"/>
							</g>
						</g>
						<g>
							<g id="id28">
								<path class="st1" d="M85.6,10.4h3.1v0.9h-1v5.3h-1v-5.3h-1V10.4z"/>
							</g>
						</g>
						<g>
							<g id="id29">
								<path class="st1" d="M90,16.6h-1v-6.2h1v2.7h1.1v-2.7h1v6.2h-1v-2.7H90V16.6z"/>
							</g>
						</g>
						<g>
							<g id="id30">
								<path class="st1" d="M68.5,15.4h-2.9v-2.6c1,0,1-0.1,1.6-0.3c0.6-0.2,1.1-0.5,1.5-0.9c0.4-0.4,0.7-1,1-1.8h2.4v22.5h-3.6
									V15.4z"/>
							</g>
						</g>
						<g>
							<g id="id31">
								<path class="st1" d="M81,27.3v-3.9c0-1.5-0.6-2.2-1.9-2.2c-1.2,0-1.8,0.7-1.8,2.2v3.9c0,1.4,0.6,2.1,1.8,2.1
									C80.3,29.4,81,28.7,81,27.3z M75,31.1c-1-1-1.4-2.3-1.4-4.1V15.6c0-3.8,1.8-5.7,5.5-5.7c1.8,0,3.1,0.5,4,1.4
									c0.9,0.9,1.4,2.3,1.4,4.1v0.4h-3.4v-0.7c0-1.4-0.6-2.2-1.9-2.2c-0.7,0-1.2,0.2-1.5,0.6c-0.3,0.4-0.5,1.1-0.5,2.1v4.2h0.1
									c0.6-1.2,1.7-1.9,3.3-1.9c1.3,0,2.3,0.4,3,1.3c0.7,0.9,1,2.1,1,3.7v4c0,1.8-0.5,3.1-1.4,4.1c-1,1-2.3,1.4-4.1,1.4
									C77.3,32.5,76,32.1,75,31.1z"/>
							</g>
						</g>
					</g>
				</g>
			</g>
		</g>
	</g>
</g>
</svg>
