<svg xmlns="http://www.w3.org/2000/svg" viewBox="0 0 305.89 199.17"><defs><style>.cls-1{fill:#1c4ca0;}.cls-2{fill:#01a7df;}.cls-3{fill:#ec1c24;}.cls-4{fill:#38b14a;}</style></defs><title>Asset 3</title><g id="Layer_2" data-name="Layer 2"><g id="Layer_1-2" data-name="Layer 1"><path class="cls-1" d="M13.64,187.14C2.86,177.68,0,165.36,0,154.69c0-7.48,2.31-20.46,12.87-30.13,7.93-7.26,18.36-11.65,34.75-11.65A109,109,0,0,1,63.57,114c4.18.55,7.69,1.53,11,1.86,1.21.11,1.65.66,1.65,1.32,0,.87-.33,2.19-.55,6-.21,3.64-.11,9.69-.33,11.88-.11,1.65-.33,2.53-1.31,2.53s-1.1-.88-1.1-2.42a15.76,15.76,0,0,0-4.3-10.11c-3.63-3.85-12.21-6.82-22.33-6.82-9.56,0-15.83,2.42-20.67,6.82-8,7.36-10.12,17.81-10.12,28.47,0,26.18,19.91,39.16,34.64,39.16,9.78,0,15.72-1.11,20.12-6.16A18.53,18.53,0,0,0,74,179.33c.32-1.76.55-2.2,1.43-2.2s1,.77,1,1.65A104.34,104.34,0,0,1,74,193.4a3.89,3.89,0,0,1-2.86,3.19c-4.4,1.75-12.76,2.53-19.8,2.53C36.3,199.12,23.65,195.82,13.64,187.14Z"/><path class="cls-1" d="M92.31,146.13c0-17.3,0-20.49-.23-24.13-.23-3.86-1.14-5.69-4.9-6.49a22.93,22.93,0,0,0-4.43-.34c-1.26,0-1.94-.23-1.94-1s.79-1,2.51-1c6,0,13.2.35,16.39.35,4.67,0,11.27-.35,16.5-.35,14.23,0,19.36,4.78,21.17,6.49a19.78,19.78,0,0,1,5.69,13.55c0,16.16-11.84,27.55-28,27.55a16.61,16.61,0,0,1-2.38-.11c-.57-.11-1.38-.23-1.38-1s.81-1.26,3.19-1.26c6.38,0,15.26-7.17,15.26-18.78,0-3.76-.35-11.39-6.72-17.08A16.92,16.92,0,0,0,111.65,118a16.33,16.33,0,0,0-4.43.46c-.57.23-.92.91-.92,2.17v45.53c0,10.47,0,19.47.58,24.36.33,3.19,1,5.68,4.43,6.14a48,48,0,0,0,5.81.45c1.25,0,1.82.34,1.82.91,0,.79-.92,1.14-2.16,1.14-7.51,0-14.69-.34-17.64-.34-2.62,0-9.79.34-14.35.34-1.48,0-2.27-.34-2.27-1.14,0-.57.46-.91,1.81-.91a18.56,18.56,0,0,0,4.1-.45c2.27-.46,2.84-3,3.3-6.26.58-4.77.58-13.77.58-24.24Z"/><path class="cls-1" d="M166.22,176.76c-.43,0-.61.17-.78.68l-4.64,12.27a16.6,16.6,0,0,0-1.29,5.25c0,1.54.77,2.65,3.43,2.65h1.28c1,0,1.29.18,1.29.69,0,.69-.51.86-1.45.86-2.75,0-6.45-.26-9.1-.26-.95,0-5.67.26-10.13.26-1.11,0-1.63-.17-1.63-.86,0-.52.34-.69,1-.69s2-.08,2.67-.16c3.95-.52,5.57-3.44,7.29-7.73l21.55-53.91c1-2.49,1.55-3.43,2.41-3.43s1.29.78,2.15,2.75c2.05,4.72,15.79,39.75,21.28,52.79,3.27,7.73,5.75,8.93,7.55,9.35a18.92,18.92,0,0,0,3.61.34c.69,0,1.11.09,1.11.69s-.77.86-4,.86-9.35,0-16.21-.17c-1.55-.09-2.58-.09-2.58-.69s.35-.69,1.21-.77a1.4,1.4,0,0,0,.77-2l-6.87-18.2a.84.84,0,0,0-.86-.6Zm17.51-4.3c.44,0,.52-.25.44-.51l-7.73-21.21c-.09-.35-.17-.78-.42-.78s-.43.43-.51.78l-7.9,21.12c-.09.34,0,.59.35.59Z"/><path class="cls-1" d="M233.82,173.27c0,11.27,0,17.35,1.85,18.93,1.51,1.32,3.79,1.93,10.66,1.93,4.67,0,8.11-.08,10.3-2.46a11.06,11.06,0,0,0,2.29-5.28c.08-.79.27-1.33,1-1.33s.69.44.69,1.5a68.62,68.62,0,0,1-1.32,10.13c-.52,1.94-1,2.38-5.55,2.38-6.34,0-10.92-.18-14.88-.27s-7.13-.26-10.74-.26c-1,0-2.91,0-5,.09s-4.33.17-6.07.17c-1.15,0-1.77-.26-1.77-.88,0-.44.36-.7,1.42-.7a14.62,14.62,0,0,0,3.17-.35c1.75-.35,2.2-2.29,2.56-4.85.44-3.69.44-10.65.44-18.75v-15.5c0-13.38,0-15.85-.18-18.67-.18-3-.88-4.41-3.78-5a12.85,12.85,0,0,0-2.91-.27c-1,0-1.49-.18-1.49-.79s.62-.79,1.94-.79c4.14,0,9.68.26,12.06.26,2.11,0,8.53-.26,12-.26,1.24,0,1.85.18,1.85.79s-.52.79-1.58.79a22.94,22.94,0,0,0-3.44.27c-2.37.43-3.07,1.93-3.26,5-.18,2.81-.18,5.29-.18,18.67Z"/><path class="cls-1" d="M279.12,173.27c0,11.27,0,17.35,1.84,18.93,1.5,1.32,3.79,1.93,10.66,1.93,4.66,0,8.09-.08,10.3-2.46a10.94,10.94,0,0,0,2.29-5.28c.1-.79.27-1.33,1-1.33s.7.44.7,1.5a69.3,69.3,0,0,1-1.32,10.13c-.53,1.94-1,2.38-5.55,2.38-6.34,0-10.92-.18-14.88-.27s-7.13-.26-10.75-.26c-1,0-2.9,0-5,.09s-4.32.17-6.08.17c-1.14,0-1.76-.26-1.76-.88,0-.44.36-.7,1.41-.7a14.64,14.64,0,0,0,3.17-.35c1.76-.35,2.2-2.29,2.56-4.85.43-3.69.43-10.65.43-18.75v-15.5c0-13.38,0-15.85-.17-18.67-.18-3-.88-4.41-3.8-5a12.65,12.65,0,0,0-2.9-.27c-1,0-1.49-.18-1.49-.79s.6-.79,1.94-.79c4.13,0,9.68.26,12.05.26,2.13,0,8.55-.26,12-.26,1.22,0,1.83.18,1.83.79s-.52.79-1.58.79a22.79,22.79,0,0,0-3.42.27c-2.38.43-3.09,1.93-3.26,5-.18,2.81-.18,5.29-.18,18.67Z"/><path class="cls-2" d="M160.8,97.15l4.57-26.52s2.48-31.79,31.81-27.48c24.23,3.57,33.34,3.63,41.83-6.58,0,0,5.95,43.75-33.34,43.51H191.9s-12-1.28-20.53,4C167.08,86.78,163.88,91,160.8,97.15Z"/><path class="cls-3" d="M152.66,112.59S157,85.22,157,85.2c.76-4.79,1-9.28-.35-14.07C153.3,59.29,142,55.93,131.16,54.74c-10.14-1.1-20.05-1.84-29.74-5.36A56.41,56.41,0,0,1,94,46.11c-5.41-2.89-10.71-7.25-12.72-13.27-.49-1.45-1.82-5.93-1-7.36,0,0-21.51,37.06-.74,58.89C101,106.88,146.63,80,152.66,112.59Z"/><path class="cls-4" d="M160.25,66.13s1.75-8.83,3.37-18.45c1.09-6.52,1.57-12.35-1.18-17.48-4.64-8.65-18.67-14.77-23.3-20.56A10.69,10.69,0,0,1,137.41,0s-12.82,13.64-11,30.07,18.14,17.07,26.1,23.62C159.63,59.51,160.25,66.13,160.25,66.13Z"/><path class="cls-1" d="M13.64,187.14C2.86,177.68,0,165.36,0,154.69c0-7.48,2.31-20.46,12.87-30.13,7.93-7.26,18.36-11.65,34.75-11.65A109,109,0,0,1,63.57,114c4.18.55,7.69,1.53,11,1.86,1.21.11,1.65.66,1.65,1.32,0,.87-.33,2.19-.55,6-.21,3.64-.11,9.69-.33,11.88-.11,1.65-.33,2.53-1.31,2.53s-1.1-.88-1.1-2.42a15.76,15.76,0,0,0-4.3-10.11c-3.63-3.85-12.21-6.82-22.33-6.82-9.56,0-15.83,2.42-20.67,6.82-8,7.36-10.12,17.81-10.12,28.47,0,26.18,19.91,39.16,34.64,39.16,9.78,0,15.72-1.11,20.12-6.16A18.53,18.53,0,0,0,74,179.33c.32-1.76.55-2.2,1.43-2.2s1,.77,1,1.65A104.34,104.34,0,0,1,74,193.4a3.89,3.89,0,0,1-2.86,3.19c-4.4,1.75-12.76,2.53-19.8,2.53C36.3,199.12,23.65,195.82,13.64,187.14Z"/><path class="cls-1" d="M92.31,146.13c0-17.3,0-20.49-.23-24.13-.23-3.86-1.14-5.69-4.9-6.49a22.93,22.93,0,0,0-4.43-.34c-1.26,0-1.94-.23-1.94-1s.79-1,2.51-1c6,0,13.2.35,16.39.35,4.67,0,11.27-.35,16.5-.35,14.23,0,19.36,4.78,21.17,6.49a19.78,19.78,0,0,1,5.69,13.55c0,16.16-11.84,27.55-28,27.55a16.61,16.61,0,0,1-2.38-.11c-.57-.11-1.38-.23-1.38-1s.81-1.26,3.19-1.26c6.38,0,15.26-7.17,15.26-18.78,0-3.76-.35-11.39-6.72-17.08A16.92,16.92,0,0,0,111.65,118a16.33,16.33,0,0,0-4.43.46c-.57.23-.92.91-.92,2.17v45.53c0,10.47,0,19.47.58,24.36.33,3.19,1,5.68,4.43,6.14a48,48,0,0,0,5.81.45c1.26,0,1.82.34,1.82.91,0,.79-.92,1.14-2.17,1.14-7.51,0-14.69-.34-17.64-.34-2.62,0-9.79.34-14.35.34-1.48,0-2.27-.34-2.27-1.14,0-.57.46-.91,1.81-.91a18.56,18.56,0,0,0,4.1-.45c2.27-.46,2.84-3,3.3-6.26.58-4.77.58-13.77.58-24.24Z"/><path class="cls-1" d="M166.22,176.76c-.43,0-.61.17-.78.68l-4.64,12.27a16.6,16.6,0,0,0-1.29,5.25c0,1.54.77,2.65,3.43,2.65h1.28c1,0,1.29.18,1.29.69,0,.69-.51.86-1.45.86-2.75,0-6.45-.26-9.1-.26-.95,0-5.67.26-10.13.26-1.11,0-1.63-.17-1.63-.86,0-.52.34-.69,1-.69s2-.08,2.67-.16c3.95-.52,5.57-3.44,7.29-7.73l21.55-53.91c1-2.49,1.55-3.43,2.41-3.43s1.29.78,2.15,2.75c2.05,4.72,15.79,39.75,21.28,52.79,3.27,7.73,5.75,8.93,7.55,9.35a18.92,18.92,0,0,0,3.61.34c.69,0,1.11.09,1.11.69s-.77.86-4,.86-9.35,0-16.21-.17c-1.55-.09-2.58-.09-2.58-.69s.35-.69,1.21-.77a1.4,1.4,0,0,0,.77-2l-6.87-18.2a.84.84,0,0,0-.86-.6Zm17.51-4.3c.44,0,.52-.25.44-.51l-7.73-21.21c-.09-.35-.17-.78-.42-.78s-.43.43-.51.78l-7.9,21.12c-.09.34,0,.59.35.59Z"/><path class="cls-1" d="M233.82,173.27c0,11.27,0,17.35,1.85,18.93,1.51,1.32,3.79,1.93,10.66,1.93,4.67,0,8.11-.08,10.3-2.46a11.06,11.06,0,0,0,2.29-5.28c.08-.79.27-1.33,1-1.33s.69.44.69,1.5a68.62,68.62,0,0,1-1.32,10.13c-.52,1.94-1,2.38-5.55,2.38-6.34,0-10.92-.18-14.88-.27s-7.13-.26-10.74-.26c-1,0-2.91,0-5,.09s-4.33.17-6.07.17c-1.15,0-1.77-.26-1.77-.88,0-.44.36-.7,1.42-.7a14.62,14.62,0,0,0,3.17-.35c1.75-.35,2.2-2.29,2.56-4.85.44-3.69.44-10.65.44-18.75v-15.5c0-13.38,0-15.85-.18-18.67-.18-3-.88-4.41-3.78-5a12.85,12.85,0,0,0-2.91-.27c-1,0-1.49-.18-1.49-.79s.62-.79,1.94-.79c4.14,0,9.68.26,12.06.26,2.11,0,8.53-.26,12-.26,1.24,0,1.85.18,1.85.79s-.52.79-1.58.79a22.94,22.94,0,0,0-3.44.27c-2.37.43-3.07,1.93-3.26,5-.18,2.81-.18,5.29-.18,18.67Z"/><path class="cls-1" d="M279.12,173.27c0,11.27,0,17.35,1.84,18.93,1.5,1.32,3.79,1.93,10.66,1.93,4.66,0,8.09-.08,10.3-2.46a10.94,10.94,0,0,0,2.29-5.28c.1-.79.27-1.33,1-1.33s.7.44.7,1.5a69.3,69.3,0,0,1-1.32,10.13c-.53,1.94-1,2.38-5.55,2.38-6.34,0-10.92-.18-14.88-.27s-7.13-.26-10.75-.26c-1,0-2.9,0-5,.09s-4.32.17-6.08.17c-1.14,0-1.76-.26-1.76-.88,0-.44.36-.7,1.41-.7a14.64,14.64,0,0,0,3.17-.35c1.76-.35,2.2-2.29,2.56-4.85.43-3.69.43-10.65.43-18.75v-15.5c0-13.38,0-15.85-.17-18.67-.18-3-.88-4.41-3.8-5a12.65,12.65,0,0,0-2.9-.27c-1,0-1.49-.18-1.49-.79s.6-.79,1.94-.79c4.13,0,9.68.26,12.05.26,2.13,0,8.55-.26,12-.26,1.22,0,1.83.18,1.83.79s-.52.79-1.58.79a22.79,22.79,0,0,0-3.42.27c-2.38.43-3.09,1.93-3.26,5-.18,2.81-.18,5.29-.18,18.67Z"/><path class="cls-2" d="M160.8,97.15l4.57-26.52s2.48-31.79,31.81-27.48c24.23,3.57,33.34,3.63,41.83-6.58,0,0,5.95,43.75-33.34,43.51H191.9s-12-1.28-20.53,4C167.08,86.78,163.88,91,160.8,97.15Z"/><path class="cls-3" d="M152.66,112.59S157,85.22,157,85.2c.76-4.79,1-9.28-.35-14.07C153.3,59.29,142,55.93,131.16,54.74c-10.14-1.1-20.05-1.84-29.74-5.36A56.41,56.41,0,0,1,94,46.11c-5.41-2.89-10.71-7.25-12.72-13.27-.49-1.45-1.82-5.93-1-7.36,0,0-21.51,37.06-.74,58.89C101,106.88,146.63,80,152.66,112.59Z"/><path class="cls-4" d="M160.25,66.13s1.75-8.83,3.37-18.45c1.09-6.52,1.57-12.35-1.18-17.48-4.64-8.65-18.67-14.77-23.3-20.56A10.69,10.69,0,0,1,137.41,0s-12.82,13.64-11,30.07,18.14,17.07,26.1,23.62C159.63,59.51,160.25,66.13,160.25,66.13Z"/></g></g></svg>