<svg enable-background="new 0 0 1190.6 841.9" viewBox="0 0 1190.6 841.9" xmlns="http://www.w3.org/2000/svg"><path d="m51.8 508.1 77.8 44.6 41.7-23.1 10.2 3.8 1.1-21.1 53.2-30.7v-56.1l74.7-61.8-129.3-74.7-129.4 75.3z" fill="#fff"/><path d="m182.6 287.1-1-.6-131.6 75.9v146.7l80.2 46.3 42.1-24.3 9.2 5.3 131.5-75.9v-98zm-1.1 4.2 125.2 72.3-125.2 72.3-125.2-72.3zm49.3 143.2v44.5l-38.5-22.3zm-51.4 95.9-51.4-29.7v48.6l-73.9-42.6v-139.4l125.2 72.3v17.3l-51.3-29.6v56.6l51.4 29.7zm-45.1-47.7 40.6-23.5 6.5 3.8 6.5-3.8 40.6 23.5-47.2 27.2z" fill="#54aafa"/><path d="m357.8 461.4v-104.5h24.6c7.7 0 12.6.1 14.7.4 5.1.7 9.8 2.5 13.9 5.3s7.4 6.5 9.8 11.2 3.6 9.6 3.6 15c0 5.3-1 10.2-3.1 14.9-2.1 4.6-5.2 8.6-9.4 11.9-3.2 2.6-7.4 4.3-12.6 5.2-3.5.6-8.2.9-14 .9h-4.3-3.9v39.7zm22.9-58.4c.9 0 1.8 0 2.7.1.9 0 1.9.1 2.8.1 1.8 0 3.5-.1 5-.2s3-.5 4.5-.9c2.8-.9 5.1-2.5 6.8-4.9 1.7-2.3 2.6-5 2.6-8 0-3.1-.9-5.8-2.8-8-1.8-2.2-4.3-3.7-7.3-4.4-1.2-.3-2.9-.5-5.1-.6s-4.1-.2-5.8-.2h-3.5-3.7v27z" fill="#12100b"/><path d="m508.8 408.9-15.3 26.8 15.8 17.2-11.7 10.1-12.1-12.7c-2.9 4-6 7.2-9.5 9.5-4.1 2.6-8.4 3.9-12.9 3.9-8 0-14.9-2.6-20.6-7.9-5.9-5.5-8.9-12.2-8.9-20.2 0-6 1.5-11.1 4.5-15.4 2.7-3.8 6.7-7.2 12.2-10.2-2.4-2.5-4.2-5-5.4-7.4-1.4-2.8-2.1-5.7-2.1-8.8 0-6.5 2.2-11.9 6.5-16.4 4.3-4.4 9.7-6.6 16.2-6.6 6.2 0 11.6 2.1 16.1 6.3s6.7 9.4 6.7 15.6c0 4.9-1.2 9.2-3.7 12.9-2.4 3.7-5.9 6.7-10.4 9l8.3 9.1 8.7-14.8zm-48.5 13.7c-3.2 1.4-5.7 3.1-7.5 5.1-2.2 2.4-3.3 5.3-3.3 8.6 0 3.5 1.2 6.3 3.5 8.4 2.3 2.2 5.2 3.2 8.7 3.2 2.8 0 5.3-1 7.5-2.9 1.8-1.6 3.5-3.8 4.9-6.7zm12.8-29.1c0-2.2-.7-4-2.1-5.3s-3.3-2-5.7-2c-2.1 0-3.9.7-5.2 2s-2 3-2 5.2c0 1.8.7 3.7 2.1 5.6.7.9 2 2.5 4 4.6 3-1.6 5-2.9 6.1-3.8 1.8-1.7 2.8-3.8 2.8-6.3z" fill="#12100b"/><path d="m531.1 375.8h-19v-18.8h58v18.8h-19.6v85.7h-19.4z" fill="#12100b"/><g fill="#a4a1a1"><path d="m369.5 509c-1.2-1.9-2.8-3.3-4.9-4.4s-4.3-1.6-6.6-1.6c-3.7 0-7 1.4-9.7 4.2s-4.1 6-4.1 9.6c0 3.9 1.4 7.2 4.2 10s6.1 4.2 9.9 4.2c2.2 0 4.4-.6 6.4-1.7s3.7-2.6 5-4.4h3.7c-1.4 2.7-3.5 5-6.3 6.7s-5.7 2.6-8.9 2.6c-4.9 0-9-1.7-12.4-5s-5-7.5-5-12.3c0-4.7 1.7-8.7 5-12 3.4-3.4 7.4-5 12.1-5 3.5 0 6.7.9 9.6 2.8 1.2.8 2.2 1.7 3.3 2.8 1.2 1.3 2 2.5 2.4 3.6h-3.7z"/><path d="m433.4 521.1c0 3.5-1.2 6.6-3.7 9.2s-5.5 3.9-9.1 3.9c-3.5 0-6.5-1.3-9-3.8-2.6-2.5-3.8-5.5-3.8-9 0-3.6 1.2-6.6 3.7-9.2 2.5-2.5 5.5-3.8 9.1-3.8 3.4 0 6.4 1.2 8.9 3.8 2.6 2.6 3.9 5.5 3.9 8.9zm-22.3.4c0 2.6.9 4.9 2.8 6.7 1.9 1.9 4.1 2.8 6.7 2.8 2.7 0 5-1 6.8-2.9s2.7-4.3 2.7-7c0-1.3-.2-2.6-.7-3.7s-1.2-2.1-2.2-3c-1.8-1.8-4-2.7-6.5-2.7-2.7 0-5 .9-6.8 2.8-1.9 1.9-2.8 4.2-2.8 7z"/><path d="m468.7 509h3.1v3.2c.6-1.3 1.5-2.2 2.6-2.8 1.2-.6 2.4-.9 3.9-.9 1.6 0 3.1.3 4.4.9s2.5 1.6 3.5 2.8l.6.9.5-.9c.8-1.2 2-2.1 3.4-2.8s2.9-1 4.4-1c2.6 0 5.1 1.2 7.6 3.7.9.9 1.5 2 1.8 3.3.3 1.1.4 2.4.4 4v14h-3.2v-13.7c0-1.5-.1-2.5-.3-3.3-.2-.7-.5-1.4-.9-2-1.4-1.9-3.2-2.9-5.6-2.9-1.1 0-2.1.2-3.1.7s-1.7 1.2-2.4 2c-.4.6-.7 1.2-.8 2s-.2 1.7-.2 2.7v.7 13.7h-3.3v-14.1c0-1.1-.1-2-.2-2.7s-.5-1.4-1-2.2c-.6-.9-1.4-1.6-2.4-2.1s-2-.8-3.1-.8-2.1.2-3.1.6c-.9.4-1.7 1.1-2.3 1.9-.5.7-.8 1.5-1 2.4-.1.9-.2 1.8-.2 2.9v14.1h-3.3v-24.3z"/><path d="m544.4 509v4.2c.9-1.5 2.2-2.7 4.1-3.5 1.8-.8 3.7-1.2 5.7-1.2 1.8 0 3.5.4 5.2 1.1 1.6.8 3.2 2 4.8 3.6.8.7 1.5 1.8 2.1 3.3s.9 3.1.9 4.8c0 3.7-1.3 6.7-3.9 9.1s-5.7 3.7-9.4 3.7c-1.9 0-3.7-.4-5.4-1.3-1.8-1-3.1-2.2-3.9-3.9v13.2h-3.2v-33.1zm19.5 12.3c0-2.6-.9-4.9-2.8-6.8s-4.2-2.8-6.8-2.8c-2.8 0-5.1.9-7 2.7s-2.9 4-2.9 6.7c0 1.4.2 2.6.6 3.8.4 1.1 1 2.1 2 3.1.9.9 2 1.7 3.2 2.2s2.5.8 3.8.8c2.7 0 5.1-.9 7-2.8 1.9-1.8 2.9-4.1 2.9-6.9z"/><path d="m627.4 533.6h-3.2v-4.6c-.9 1.7-2.2 2.9-3.9 3.8s-3.6 1.4-5.6 1.4c-1.9 0-3.7-.4-5.5-1.3-2-.9-3.7-2.2-5.2-3.9-.6-.6-1.1-1.6-1.5-2.9-.6-1.6-.9-3.3-.9-5 0-1.5.3-3 .9-4.6.5-1.4 1-2.3 1.6-2.8 1.7-1.9 3.5-3.3 5.4-4.1 1.6-.7 3.4-1.1 5.2-1.1 2.1 0 4 .4 5.7 1.3s3 2.2 3.9 3.9v-4.7h3.2v24.6zm-22.6-12.2c0 2.7 1 4.9 2.9 6.8 2 1.9 4.3 2.8 6.9 2.8s4.8-.9 6.7-2.8 2.8-4.1 2.8-6.7c0-2.7-.9-5-2.7-6.9s-4.1-2.8-6.8-2.8-5 .9-6.9 2.8c-1.9 1.8-2.9 4.1-2.9 6.8z"/><path d="m663.7 509h3.1v3.5c.9-1.3 2-2.3 3.2-3 1.3-.7 2.7-1 4.3-1s3.3.3 4.8 1 2.8 1.7 3.9 3c.9 1.1 1.5 2.4 1.8 3.7.3 1.1.4 2.5.4 4.3v12.9h-3.2v-12.9c0-1.3-.1-2.3-.2-3-.2-1-.6-2-1.2-2.8-1.6-2.1-3.7-3.1-6.3-3.1-1.2 0-2.3.2-3.4.8-1.1.5-1.9 1.2-2.6 2.2-.5.6-.8 1.3-1 2.1s-.3 2.1-.3 3.8v12.9h-3.3z"/><path d="m742.4 509-14.2 33.1h-3.4l3.9-9.4-9.5-23.8h3.5l7.9 19.5 8.3-19.5h3.5z"/><path d="m806.2 500.4h3.3v30.2h13.8v3h-17.1z"/><path d="m857 500.4h3.3v5.7h-3.3zm0 8.6h3.3v24.5h-3.3z"/><path d="m896.5 509h3.1v3.2c.6-1.3 1.5-2.2 2.6-2.8 1.2-.6 2.4-.9 3.9-.9 1.6 0 3.1.3 4.4.9s2.5 1.6 3.5 2.8l.6.9.5-.9c.8-1.2 2-2.1 3.4-2.8s2.9-1 4.4-1c2.6 0 5.1 1.2 7.6 3.7.9.9 1.5 2 1.8 3.3.3 1.1.4 2.4.4 4v14h-3.3v-13.7c0-1.5-.1-2.5-.3-3.3-.2-.7-.5-1.4-.9-2-1.4-1.9-3.2-2.9-5.6-2.9-1.1 0-2.1.2-3.1.7s-1.8 1.2-2.4 2c-.4.6-.7 1.2-.8 2s-.2 1.7-.2 2.7v.7 13.7h-3.1v-14.1c0-1.1-.1-2-.2-2.7s-.5-1.4-1-2.2c-.6-.9-1.4-1.6-2.4-2.1s-2-.8-3.1-.8-2.1.2-3 .6-1.7 1.1-2.3 1.9c-.5.7-.8 1.5-1 2.4s-.2 1.8-.2 2.9v14.1h-3.3z"/><path d="m969.1 500.4h3.3v5.7h-3.3zm0 8.6h3.3v24.5h-3.3z"/><path d="m1011.5 512h-5.1v-3h5.1v-8.6h3.3v8.6h5.7v3h-5.7v21.5h-3.3z"/><path d="m1056.8 522.5c0 2.3 1 4.3 2.9 6s4 2.5 6.3 2.5c1.8 0 3.6-.5 5.2-1.5s2.8-2.3 3.6-3.9h3.4c-.8 2.5-2.4 4.5-4.7 6.1s-4.7 2.4-7.3 2.4c-3.5 0-6.6-1.3-9.1-3.8s-3.7-5.5-3.7-9.1 1.2-6.6 3.7-9.1 5.5-3.7 9.1-3.7c1.9 0 3.7.4 5.4 1.2s3.2 2 4.4 3.5c1.1 1.3 1.8 2.8 2.3 4.3.4 1.3.6 3 .6 4.9h-22.1zm18.9-3c-.4-2.2-1.5-4.1-3.3-5.5-1.8-1.5-3.8-2.2-6.1-2.2s-4.4.7-6.2 2.2-2.9 3.3-3.3 5.6h18.9z"/><path d="m1136.5 533.6h-3.2v-4.5c-2.4 3.4-5.7 5.1-9.9 5.1-1.8 0-3.5-.4-5.2-1.2s-3.4-2.1-5.1-3.9c-.6-.6-1.3-1.6-1.8-3.1-.6-1.5-.8-3.1-.8-4.8 0-3.6 1.3-6.6 3.9-9.1 2.6-2.4 5.7-3.7 9.3-3.7 1.9 0 3.8.4 5.5 1.2s3 2 4.1 3.6v-12.9h3.3v33.3zm-13.1-21.9c-2.6 0-4.9.9-6.7 2.8-1.9 1.8-2.8 4.1-2.8 6.7 0 2.7.9 5 2.8 6.9s4.2 2.9 6.9 2.9 5-1 6.9-2.9 2.8-4.2 2.8-6.9-1-4.9-2.9-6.8c-2-1.8-4.3-2.7-7-2.7z"/></g><path d="m631.9 349.8h10.9v48h56.5v-48h11v109.1h-11v-51.2h-56.5v51.2h-10.9z" fill="#12100b"/><path d="m813 417.9c0 11.6-4.1 21.7-12.3 30.2s-18.1 12.7-29.8 12.7c-11.5 0-21.4-4.1-29.8-12.3-8.3-8.2-12.5-18-12.5-29.5 0-11.7 4.1-21.8 12.3-30.1 8.2-8.4 18.2-12.6 29.9-12.6 11.2 0 21 4.1 29.4 12.4 8.6 8.3 12.8 18 12.8 29.2zm-73.3 1.2c0 8.7 3 16 9.2 22.2 6.1 6.1 13.5 9.2 22.2 9.2 9 0 16.5-3.2 22.3-9.4 5.9-6.3 8.8-14 8.8-23 0-4.4-.8-8.4-2.4-12.1s-4-7.1-7.2-10.1c-6-5.9-13.2-8.8-21.5-8.8-8.9 0-16.3 3.1-22.3 9.3-6.1 6.1-9.1 13.7-9.1 22.7z" fill="#12100b"/><path d="m833.6 435.2c0 4.2 1.4 7.8 4.2 10.8 2.8 2.9 6.3 4.4 10.4 4.4 3.9 0 7.3-1.3 10-3.8s4.1-5.7 4.1-9.6c0-4.5-1.6-8.1-4.8-10.7-2.3-2-6-3.6-10.9-4.9-3.4-1-5.9-1.9-7.7-2.6-2.7-1.2-5.1-2.6-7-4.4s-3.5-4.1-4.6-6.8-1.7-5.6-1.7-8.6c0-6.6 2.3-11.9 6.8-16.2s10-6.4 16.5-6.4c6.1 0 11.4 2.2 15.8 6.5s6.6 9.5 6.6 15.5h-11c0-3.6-1.1-6.4-3.5-8.4-2.3-2-5.3-3-9-3-3.2 0-5.9 1.1-8 3.2s-3.2 4.8-3.2 7.9c0 3.9 1.5 7 4.5 9.2 1.7 1.3 4.9 2.7 9.6 4.3 7.2 2.3 12.5 4.8 15.9 7.8 4.5 3.9 6.7 9.2 6.7 15.9 0 7.6-2.4 13.8-7.3 18.6-4.9 4.7-11.2 7.1-18.9 7.1-6.8 0-12.5-2.5-17.3-7.6-4.7-5.1-7.1-11.1-7.1-18h10.9z" fill="#12100b"/><path d="m896.7 388h-16.8v-9.8h16.8v-28.4h10.9v28.4h18.8v9.8h-18.8v70.9h-10.9z" fill="#12100b"/><path d="m938.6 349.8h10.7v18.6h-10.7zm0 28.4h10.7v80.7h-10.7z" fill="#12100b"/><path d="m969 378.2h10.3v11.6c3-4.4 6.6-7.7 10.7-10 4.2-2.3 8.9-3.4 14.3-3.4 5.5 0 10.7 1.1 15.7 3.4s9.3 5.6 12.9 10c3 3.7 5 7.8 6.1 12.3.9 3.6 1.3 8.3 1.3 14.3v42.5h-10.9v-42.5c0-4.2-.3-7.6-.8-10.1-.7-3.4-2.1-6.5-3.9-9.2-5.1-6.9-12.1-10.3-20.9-10.3-3.9 0-7.7.8-11.2 2.5s-6.4 4.1-8.5 7.3c-1.6 2-2.8 4.4-3.4 7-.7 2.7-1 6.9-1 12.6v42.5h-10.7z" fill="#12100b"/><path d="m1140.6 447.6c0 9-.7 15.3-2.2 18.9s-4 7.2-7.4 10.8c-3.8 4.2-8.5 7.4-14.3 9.7-5.7 2.3-11.6 3.5-17.4 3.5-9.1 0-17.4-2.7-24.8-8.1-7.6-5.6-12.5-12.8-14.7-21.5h10.5c3.4 6.1 7.5 10.8 12.4 14.1s10.7 5 17.5 5c5.3 0 10.4-1.2 15.2-3.6s8.6-5.8 11.2-10.3c1.6-3 2.7-6 3.1-9.2.3-1.9.4-5 .4-9.4v-4.5c-2.5 5.8-6.8 10.2-13 13.4-5.6 2.9-11.9 4.4-18.8 4.4-5.2 0-10.4-1-15.4-3.1-5.1-2.1-9.6-5-13.6-8.7-4.2-4.1-7.4-8.8-9.5-13.8-2.1-5.1-3.1-10.6-3.1-16.6 0-5.1.9-10.2 2.7-15.4 1.5-4.4 3.2-7.5 4.9-9.4 5-6.3 10.5-10.9 16.4-13.7 5.1-2.5 10.8-3.7 17.1-3.7 6.6 0 12.9 1.5 18.8 4.5s10.4 7.3 13.4 12.9v-15.6h10.5v69.4zm-73-29.9c0 9.2 2.9 16.9 8.6 23.2s13.2 9.4 22.3 9.4c4.4 0 8.4-.8 12.1-2.2 3.7-1.5 7-3.8 9.9-6.8s5.2-6.6 6.9-10.7 2.5-8.1 2.5-12c0-9-3.1-16.5-9.3-22.6s-13.9-9.1-22.9-9.1c-8.4 0-15.6 3-21.3 9.1-5.9 6.2-8.8 13.4-8.8 21.7z" fill="#12100b"/></svg>