<?xml version="1.0" encoding="utf-8"?>
<!-- Generator: Adobe Illustrator 21.0.0, SVG Export Plug-In . SVG Version: 6.00 Build 0)  -->
<svg version="1.1" id="Layer_1" xmlns="http://www.w3.org/2000/svg" xmlns:xlink="http://www.w3.org/1999/xlink" x="0px" y="0px"
	 viewBox="0 0 1190.6 841.9" style="enable-background:new 0 0 1190.6 841.9;" xml:space="preserve">
<style type="text/css">
	.st0{fill:#FFFFFF;}
	.st1{fill:#54AAFA;}
	.st2{fill:#12100B;}
	.st3{fill:#A4A1A1;}
</style>
<g id="p_x26_t_hosting_1_">
	<g>
		<polygon class="st0" points="51.8,508.1 129.6,552.7 171.3,529.6 181.5,533.4 182.6,512.3 235.8,481.6 235.8,425.5 310.5,363.7 
			181.2,289 51.8,364.3 		"/>
		<path class="st1" d="M182.6,287.1l-1-0.6L50,362.4v146.7l80.2,46.3l42.1-24.3l9.2,5.3L313,460.5v-98L182.6,287.1z M181.5,291.3
			l125.2,72.3l-125.2,72.3L56.3,363.6L181.5,291.3z M230.8,434.5V479l-38.5-22.3L230.8,434.5z M179.4,530.4L128,500.7v48.6
			l-73.9-42.6V367.3l125.2,72.3v17.3L128,427.3v56.6l51.4,29.7V530.4z M134.3,482.7l40.6-23.5l6.5,3.8l6.5-3.8l40.6,23.5l-47.2,27.2
			L134.3,482.7z"/>
	</g>
	<g id="XMLID_67_">
		<g>
			<path id="XMLID_134_" class="st2" d="M357.8,461.4V356.9h24.6c7.7,0,12.6,0.1,14.7,0.4c5.1,0.7,9.8,2.5,13.9,5.3
				c4.1,2.8,7.4,6.5,9.8,11.2c2.4,4.7,3.6,9.6,3.6,15c0,5.3-1,10.2-3.1,14.9c-2.1,4.6-5.2,8.6-9.4,11.9c-3.2,2.6-7.4,4.3-12.6,5.2
				c-3.5,0.6-8.2,0.9-14,0.9H381h-3.9v39.7H357.8z M380.7,403c0.9,0,1.8,0,2.7,0.1c0.9,0,1.9,0.1,2.8,0.1c1.8,0,3.5-0.1,5-0.2
				c1.5-0.1,3-0.5,4.5-0.9c2.8-0.9,5.1-2.5,6.8-4.9c1.7-2.3,2.6-5,2.6-8c0-3.1-0.9-5.8-2.8-8c-1.8-2.2-4.3-3.7-7.3-4.4
				c-1.2-0.3-2.9-0.5-5.1-0.6c-2.2-0.1-4.1-0.2-5.8-0.2h-3.5h-3.7V403H380.7z"/>
			<path id="XMLID_130_" class="st2" d="M508.8,408.9l-15.3,26.8l15.8,17.2L497.6,463l-12.1-12.7c-2.9,4-6,7.2-9.5,9.5
				c-4.1,2.6-8.4,3.9-12.9,3.9c-8,0-14.9-2.6-20.6-7.9c-5.9-5.5-8.9-12.2-8.9-20.2c0-6,1.5-11.1,4.5-15.4c2.7-3.8,6.7-7.2,12.2-10.2
				c-2.4-2.5-4.2-5-5.4-7.4c-1.4-2.8-2.1-5.7-2.1-8.8c0-6.5,2.2-11.9,6.5-16.4c4.3-4.4,9.7-6.6,16.2-6.6c6.2,0,11.6,2.1,16.1,6.3
				c4.5,4.2,6.7,9.4,6.7,15.6c0,4.9-1.2,9.2-3.7,12.9c-2.4,3.7-5.9,6.7-10.4,9l8.3,9.1l8.7-14.8H508.8z M460.3,422.6
				c-3.2,1.4-5.7,3.1-7.5,5.1c-2.2,2.4-3.3,5.3-3.3,8.6c0,3.5,1.2,6.3,3.5,8.4c2.3,2.2,5.2,3.2,8.7,3.2c2.8,0,5.3-1,7.5-2.9
				c1.8-1.6,3.5-3.8,4.9-6.7L460.3,422.6z M473.1,393.5c0-2.2-0.7-4-2.1-5.3c-1.4-1.3-3.3-2-5.7-2c-2.1,0-3.9,0.7-5.2,2
				c-1.3,1.3-2,3-2,5.2c0,1.8,0.7,3.7,2.1,5.6c0.7,0.9,2,2.5,4,4.6c3-1.6,5-2.9,6.1-3.8C472.1,398.1,473.1,396,473.1,393.5z"/>
			<path id="XMLID_128_" class="st2" d="M531.1,375.8h-19v-18.8h58v18.8h-19.6v85.7h-19.4V375.8z"/>
		</g>
	</g>
	<path id="XMLID_65_" class="st3" d="M369.5,509c-1.2-1.9-2.8-3.3-4.9-4.4c-2.1-1.1-4.3-1.6-6.6-1.6c-3.7,0-7,1.4-9.7,4.2
		c-2.7,2.8-4.1,6-4.1,9.6c0,3.9,1.4,7.2,4.2,10c2.8,2.8,6.1,4.2,9.9,4.2c2.2,0,4.4-0.6,6.4-1.7c2-1.1,3.7-2.6,5-4.4h3.7
		c-1.4,2.7-3.5,5-6.3,6.7c-2.8,1.7-5.7,2.6-8.9,2.6c-4.9,0-9-1.7-12.4-5c-3.4-3.3-5-7.5-5-12.3c0-4.7,1.7-8.7,5-12
		c3.4-3.4,7.4-5,12.1-5c3.5,0,6.7,0.9,9.6,2.8c1.2,0.8,2.2,1.7,3.3,2.8c1.2,1.3,2,2.5,2.4,3.6H369.5z"/>
	<path id="XMLID_62_" class="st3" d="M433.4,521.1c0,3.5-1.2,6.6-3.7,9.2c-2.5,2.6-5.5,3.9-9.1,3.9c-3.5,0-6.5-1.3-9-3.8
		c-2.6-2.5-3.8-5.5-3.8-9c0-3.6,1.2-6.6,3.7-9.2c2.5-2.5,5.5-3.8,9.1-3.8c3.4,0,6.4,1.2,8.9,3.8
		C432.1,514.8,433.4,517.7,433.4,521.1z M411.1,521.5c0,2.6,0.9,4.9,2.8,6.7c1.9,1.9,4.1,2.8,6.7,2.8c2.7,0,5-1,6.8-2.9
		c1.8-1.9,2.7-4.3,2.7-7c0-1.3-0.2-2.6-0.7-3.7c-0.5-1.1-1.2-2.1-2.2-3c-1.8-1.8-4-2.7-6.5-2.7c-2.7,0-5,0.9-6.8,2.8
		C412,516.4,411.1,518.7,411.1,521.5z"/>
	<path id="XMLID_60_" class="st3" d="M468.7,509h3.1v3.2c0.6-1.3,1.5-2.2,2.6-2.8c1.2-0.6,2.4-0.9,3.9-0.9c1.6,0,3.1,0.3,4.4,0.9
		c1.3,0.6,2.5,1.6,3.5,2.8l0.6,0.9l0.5-0.9c0.8-1.2,2-2.1,3.4-2.8c1.4-0.7,2.9-1,4.4-1c2.6,0,5.1,1.2,7.6,3.7c0.9,0.9,1.5,2,1.8,3.3
		c0.3,1.1,0.4,2.4,0.4,4v14h-3.2v-13.7c0-1.5-0.1-2.5-0.3-3.3c-0.2-0.7-0.5-1.4-0.9-2c-1.4-1.9-3.2-2.9-5.6-2.9
		c-1.1,0-2.1,0.2-3.1,0.7c-1,0.5-1.7,1.2-2.4,2c-0.4,0.6-0.7,1.2-0.8,2c-0.1,0.8-0.2,1.7-0.2,2.7v0.7v13.7h-3.3v-14.1
		c0-1.1-0.1-2-0.2-2.7c-0.1-0.7-0.5-1.4-1-2.2c-0.6-0.9-1.4-1.6-2.4-2.1c-1-0.5-2-0.8-3.1-0.8c-1.1,0-2.1,0.2-3.1,0.6
		c-0.9,0.4-1.7,1.1-2.3,1.9c-0.5,0.7-0.8,1.5-1,2.4c-0.1,0.9-0.2,1.8-0.2,2.9v14.1h-3.3V509z"/>
	<path id="XMLID_57_" class="st3" d="M544.4,509v4.2c0.9-1.5,2.2-2.7,4.1-3.5c1.8-0.8,3.7-1.2,5.7-1.2c1.8,0,3.5,0.4,5.2,1.1
		c1.6,0.8,3.2,2,4.8,3.6c0.8,0.7,1.5,1.8,2.1,3.3c0.6,1.5,0.9,3.1,0.9,4.8c0,3.7-1.3,6.7-3.9,9.1c-2.6,2.4-5.7,3.7-9.4,3.7
		c-1.9,0-3.7-0.4-5.4-1.3c-1.8-1-3.1-2.2-3.9-3.9v13.2h-3.2V509H544.4z M563.9,521.3c0-2.6-0.9-4.9-2.8-6.8
		c-1.9-1.9-4.2-2.8-6.8-2.8c-2.8,0-5.1,0.9-7,2.7c-1.9,1.8-2.9,4-2.9,6.7c0,1.4,0.2,2.6,0.6,3.8c0.4,1.1,1,2.1,2,3.1
		c0.9,0.9,2,1.7,3.2,2.2c1.2,0.5,2.5,0.8,3.8,0.8c2.7,0,5.1-0.9,7-2.8C562.9,526.4,563.9,524.1,563.9,521.3z"/>
	<path id="XMLID_54_" class="st3" d="M627.4,533.6h-3.2V529c-0.9,1.7-2.2,2.9-3.9,3.8c-1.7,0.9-3.6,1.4-5.6,1.4
		c-1.9,0-3.7-0.4-5.5-1.3c-2-0.9-3.7-2.2-5.2-3.9c-0.6-0.6-1.1-1.6-1.5-2.9c-0.6-1.6-0.9-3.3-0.9-5c0-1.5,0.3-3,0.9-4.6
		c0.5-1.4,1-2.3,1.6-2.8c1.7-1.9,3.5-3.3,5.4-4.1c1.6-0.7,3.4-1.1,5.2-1.1c2.1,0,4,0.4,5.7,1.3c1.7,0.9,3,2.2,3.9,3.9V509h3.2V533.6
		z M604.8,521.4c0,2.7,1,4.9,2.9,6.8c2,1.9,4.3,2.8,6.9,2.8c2.6,0,4.8-0.9,6.7-2.8c1.9-1.9,2.8-4.1,2.8-6.7c0-2.7-0.9-5-2.7-6.9
		c-1.8-1.9-4.1-2.8-6.8-2.8c-2.7,0-5,0.9-6.9,2.8C605.8,516.4,604.8,518.7,604.8,521.4z"/>
	<path id="XMLID_52_" class="st3" d="M663.7,509h3.1v3.5c0.9-1.3,2-2.3,3.2-3c1.3-0.7,2.7-1,4.3-1c1.6,0,3.3,0.3,4.8,1
		c1.5,0.7,2.8,1.7,3.9,3c0.9,1.1,1.5,2.4,1.8,3.7c0.3,1.1,0.4,2.5,0.4,4.3v12.9H682v-12.9c0-1.3-0.1-2.3-0.2-3c-0.2-1-0.6-2-1.2-2.8
		c-1.6-2.1-3.7-3.1-6.3-3.1c-1.2,0-2.3,0.2-3.4,0.8c-1.1,0.5-1.9,1.2-2.6,2.2c-0.5,0.6-0.8,1.3-1,2.1c-0.2,0.8-0.3,2.1-0.3,3.8v12.9
		h-3.3V509z"/>
	<path id="XMLID_50_" class="st3" d="M742.4,509l-14.2,33.1h-3.4l3.9-9.4l-9.5-23.8h3.5l7.9,19.5l8.3-19.5H742.4z"/>
	<path id="XMLID_48_" class="st3" d="M806.2,500.4h3.3v30.2h13.8v3h-17.1V500.4z"/>
	<path id="XMLID_45_" class="st3" d="M857,500.4h3.3v5.7H857V500.4z M857,509h3.3v24.5H857V509z"/>
	<path id="XMLID_43_" class="st3" d="M896.5,509h3.1v3.2c0.6-1.3,1.5-2.2,2.6-2.8c1.2-0.6,2.4-0.9,3.9-0.9c1.6,0,3.1,0.3,4.4,0.9
		c1.3,0.6,2.5,1.6,3.5,2.8l0.6,0.9l0.5-0.9c0.8-1.2,2-2.1,3.4-2.8c1.4-0.7,2.9-1,4.4-1c2.6,0,5.1,1.2,7.6,3.7c0.9,0.9,1.5,2,1.8,3.3
		c0.3,1.1,0.4,2.4,0.4,4v14h-3.3v-13.7c0-1.5-0.1-2.5-0.3-3.3c-0.2-0.7-0.5-1.4-0.9-2c-1.4-1.9-3.2-2.9-5.6-2.9
		c-1.1,0-2.1,0.2-3.1,0.7c-1,0.5-1.8,1.2-2.4,2c-0.4,0.6-0.7,1.2-0.8,2c-0.1,0.8-0.2,1.7-0.2,2.7v0.7v13.7H913v-14.1
		c0-1.1-0.1-2-0.2-2.7c-0.1-0.7-0.5-1.4-1-2.2c-0.6-0.9-1.4-1.6-2.4-2.1c-1-0.5-2-0.8-3.1-0.8c-1.1,0-2.1,0.2-3,0.6
		c-0.9,0.4-1.7,1.1-2.3,1.9c-0.5,0.7-0.8,1.5-1,2.4c-0.2,0.9-0.2,1.8-0.2,2.9v14.1h-3.3V509z"/>
	<path id="XMLID_40_" class="st3" d="M969.1,500.4h3.3v5.7h-3.3V500.4z M969.1,509h3.3v24.5h-3.3V509z"/>
	<path id="XMLID_38_" class="st3" d="M1011.5,512h-5.1v-3h5.1v-8.6h3.3v8.6h5.7v3h-5.7v21.5h-3.3V512z"/>
	<path id="XMLID_35_" class="st3" d="M1056.8,522.5c0,2.3,1,4.3,2.9,6c1.9,1.7,4,2.5,6.3,2.5c1.8,0,3.6-0.5,5.2-1.5
		c1.6-1,2.8-2.3,3.6-3.9h3.4c-0.8,2.5-2.4,4.5-4.7,6.1c-2.3,1.6-4.7,2.4-7.3,2.4c-3.5,0-6.6-1.3-9.1-3.8c-2.5-2.5-3.7-5.5-3.7-9.1
		c0-3.6,1.2-6.6,3.7-9.1c2.5-2.5,5.5-3.7,9.1-3.7c1.9,0,3.7,0.4,5.4,1.2c1.7,0.8,3.2,2,4.4,3.5c1.1,1.3,1.8,2.8,2.3,4.3
		c0.4,1.3,0.6,3,0.6,4.9H1056.8z M1075.7,519.5c-0.4-2.2-1.5-4.1-3.3-5.5c-1.8-1.5-3.8-2.2-6.1-2.2c-2.3,0-4.4,0.7-6.2,2.2
		c-1.8,1.5-2.9,3.3-3.3,5.6H1075.7z"/>
	<path id="XMLID_32_" class="st3" d="M1136.5,533.6h-3.2v-4.5c-2.4,3.4-5.7,5.1-9.9,5.1c-1.8,0-3.5-0.4-5.2-1.2
		c-1.7-0.8-3.4-2.1-5.1-3.9c-0.6-0.6-1.3-1.6-1.8-3.1c-0.6-1.5-0.8-3.1-0.8-4.8c0-3.6,1.3-6.6,3.9-9.1c2.6-2.4,5.7-3.7,9.3-3.7
		c1.9,0,3.8,0.4,5.5,1.2c1.7,0.8,3,2,4.1,3.6v-12.9h3.3V533.6z M1123.4,511.7c-2.6,0-4.9,0.9-6.7,2.8c-1.9,1.8-2.8,4.1-2.8,6.7
		c0,2.7,0.9,5,2.8,6.9c1.9,1.9,4.2,2.9,6.9,2.9c2.7,0,5-1,6.9-2.9c1.9-1.9,2.8-4.2,2.8-6.9c0-2.7-1-4.9-2.9-6.8
		C1128.4,512.6,1126.1,511.7,1123.4,511.7z"/>
	<g id="XMLID_1_">
		<g>
			<path id="XMLID_209_" class="st2" d="M631.9,349.8h10.9v48h56.5v-48h11v109.1h-11v-51.2h-56.5v51.2h-10.9V349.8z"/>
			<path id="XMLID_206_" class="st2" d="M813,417.9c0,11.6-4.1,21.7-12.3,30.2c-8.2,8.5-18.1,12.7-29.8,12.7
				c-11.5,0-21.4-4.1-29.8-12.3c-8.3-8.2-12.5-18-12.5-29.5c0-11.7,4.1-21.8,12.3-30.1c8.2-8.4,18.2-12.6,29.9-12.6
				c11.2,0,21,4.1,29.4,12.4C808.8,397,813,406.7,813,417.9z M739.7,419.1c0,8.7,3,16,9.2,22.2c6.1,6.1,13.5,9.2,22.2,9.2
				c9,0,16.5-3.2,22.3-9.4c5.9-6.3,8.8-14,8.8-23c0-4.4-0.8-8.4-2.4-12.1c-1.6-3.7-4-7.1-7.2-10.1c-6-5.9-13.2-8.8-21.5-8.8
				c-8.9,0-16.3,3.1-22.3,9.3C742.7,402.5,739.7,410.1,739.7,419.1z"/>
			<path id="XMLID_204_" class="st2" d="M833.6,435.2c0,4.2,1.4,7.8,4.2,10.8c2.8,2.9,6.3,4.4,10.4,4.4c3.9,0,7.3-1.3,10-3.8
				c2.7-2.5,4.1-5.7,4.1-9.6c0-4.5-1.6-8.1-4.8-10.7c-2.3-2-6-3.6-10.9-4.9c-3.4-1-5.9-1.9-7.7-2.6c-2.7-1.2-5.1-2.6-7-4.4
				c-1.9-1.8-3.5-4.1-4.6-6.8c-1.1-2.7-1.7-5.6-1.7-8.6c0-6.6,2.3-11.9,6.8-16.2c4.5-4.3,10-6.4,16.5-6.4c6.1,0,11.4,2.2,15.8,6.5
				c4.4,4.3,6.6,9.5,6.6,15.5h-11c0-3.6-1.1-6.4-3.5-8.4c-2.3-2-5.3-3-9-3c-3.2,0-5.9,1.1-8,3.2c-2.1,2.1-3.2,4.8-3.2,7.9
				c0,3.9,1.5,7,4.5,9.2c1.7,1.3,4.9,2.7,9.6,4.3c7.2,2.3,12.5,4.8,15.9,7.8c4.5,3.9,6.7,9.2,6.7,15.9c0,7.6-2.4,13.8-7.3,18.6
				c-4.9,4.7-11.2,7.1-18.9,7.1c-6.8,0-12.5-2.5-17.3-7.6c-4.7-5.1-7.1-11.1-7.1-18H833.6z"/>
			<path id="XMLID_202_" class="st2" d="M896.7,388h-16.8v-9.8h16.8v-28.4h10.9v28.4h18.8v9.8h-18.8v70.9h-10.9V388z"/>
			<path id="XMLID_199_" class="st2" d="M938.6,349.8h10.7v18.6h-10.7V349.8z M938.6,378.2h10.7v80.7h-10.7V378.2z"/>
			<path id="XMLID_197_" class="st2" d="M969,378.2h10.3v11.6c3-4.4,6.6-7.7,10.7-10c4.2-2.3,8.9-3.4,14.3-3.4
				c5.5,0,10.7,1.1,15.7,3.4c5,2.3,9.3,5.6,12.9,10c3,3.7,5,7.8,6.1,12.3c0.9,3.6,1.3,8.3,1.3,14.3v42.5h-10.9v-42.5
				c0-4.2-0.3-7.6-0.8-10.1c-0.7-3.4-2.1-6.5-3.9-9.2c-5.1-6.9-12.1-10.3-20.9-10.3c-3.9,0-7.7,0.8-11.2,2.5
				c-3.5,1.7-6.4,4.1-8.5,7.3c-1.6,2-2.8,4.4-3.4,7c-0.7,2.7-1,6.9-1,12.6v42.5H969V378.2z"/>
			<path id="XMLID_194_" class="st2" d="M1140.6,447.6c0,9-0.7,15.3-2.2,18.9c-1.5,3.6-4,7.2-7.4,10.8c-3.8,4.2-8.5,7.4-14.3,9.7
				c-5.7,2.3-11.6,3.5-17.4,3.5c-9.1,0-17.4-2.7-24.8-8.1c-7.6-5.6-12.5-12.8-14.7-21.5h10.5c3.4,6.1,7.5,10.8,12.4,14.1
				c4.9,3.3,10.7,5,17.5,5c5.3,0,10.4-1.2,15.2-3.6c4.8-2.4,8.6-5.8,11.2-10.3c1.6-3,2.7-6,3.1-9.2c0.3-1.9,0.4-5,0.4-9.4v-4.5
				c-2.5,5.8-6.8,10.2-13,13.4c-5.6,2.9-11.9,4.4-18.8,4.4c-5.2,0-10.4-1-15.4-3.1c-5.1-2.1-9.6-5-13.6-8.7
				c-4.2-4.1-7.4-8.8-9.5-13.8c-2.1-5.1-3.1-10.6-3.1-16.6c0-5.1,0.9-10.2,2.7-15.4c1.5-4.4,3.2-7.5,4.9-9.4
				c5-6.3,10.5-10.9,16.4-13.7c5.1-2.5,10.8-3.7,17.1-3.7c6.6,0,12.9,1.5,18.8,4.5c5.9,3,10.4,7.3,13.4,12.9v-15.6h10.5V447.6z
				 M1067.6,417.7c0,9.2,2.9,16.9,8.6,23.2c5.7,6.3,13.2,9.4,22.3,9.4c4.4,0,8.4-0.8,12.1-2.2c3.7-1.5,7-3.8,9.9-6.8
				c2.9-3,5.2-6.6,6.9-10.7c1.7-4.1,2.5-8.1,2.5-12c0-9-3.1-16.5-9.3-22.6c-6.2-6.1-13.9-9.1-22.9-9.1c-8.4,0-15.6,3-21.3,9.1
				C1070.5,402.2,1067.6,409.4,1067.6,417.7z"/>
		</g>
	</g>
</g>
</svg>
