<svg xmlns="http://www.w3.org/2000/svg" viewBox="0 0 1041.06 476.38"><defs><style>.cls-1{fill:#231f20;}.cls-2{fill:#ed4724;}.cls-3{fill:#fff;}</style></defs><title>Asset 1</title><g id="Layer_2" data-name="Layer 2"><g id="Layer_1-2" data-name="Layer 1"><rect class="cls-1" width="1041.06" height="476.38"/><path class="cls-2" d="M371.17,246.52l-95.95-70.47h0c-1.79-1.36-5.36-4.08-6.09-4.08l49.76,139.68h48.59c5.91,0,8.06-2.13,8.06-8V254.29c0-3.52-1.3-5.51-3.93-7.46"/><path class="cls-3" d="M381.72,238.19,278.63,162.83l-.54-.41A15.8,15.8,0,0,0,257.23,164L204.29,217a15.81,15.81,0,0,0-4.84,10.4c0,.34,0,.68,0,1v80.1a15.85,15.85,0,0,0,15.83,15.83h157.1a15.85,15.85,0,0,0,15.83-15.83V250.94A16,16,0,0,0,381.72,238.19Zm-.29,70.37a9.09,9.09,0,0,1-9.08,9.08H215.25a9.09,9.09,0,0,1-9.08-9.08v-8.45h0V228.46c0-.21,0-.41,0-.61a9,9,0,0,1,2.78-6v0a8.11,8.11,0,0,0,.66-.63L262,168.71a9.06,9.06,0,0,1,11.43-1.29l104.27,76.22h0a9.12,9.12,0,0,1,3.68,7.31Z"/><path class="cls-3" d="M588.19,283.07a4,4,0,0,1-1.31,3.21,5.63,5.63,0,0,1-3.73,1.11H582V292h-2.75V279h4.15a5.56,5.56,0,0,1,3.59,1A3.71,3.71,0,0,1,588.19,283.07ZM582,285.13h.91a3,3,0,0,0,1.9-.5,1.75,1.75,0,0,0,.63-1.46,1.82,1.82,0,0,0-.53-1.43,2.53,2.53,0,0,0-1.66-.46H582Z"/><path class="cls-3" d="M603.25,292V279H606v10.7h5.26V292Z"/><path class="cls-3" d="M635.36,292l-.94-3.09h-4.73l-1,3.09h-3l4.58-13h3.36l4.6,13Zm-1.6-5.4q-1.31-4.2-1.47-4.75c-.11-.37-.19-.66-.23-.87q-.3,1.14-1.68,5.62Z"/><path class="cls-3" d="M657.47,284.37l2.7-5.34h3L658.83,287V292H656.1v-5l-4.31-8h3Z"/><path class="cls-3" d="M687,292h-2.74V286.4h-5.14V292h-2.76V279h2.76v5.08h5.14V279H687Z"/><path class="cls-3" d="M712.61,285.5a7,7,0,0,1-1.59,4.95,6.94,6.94,0,0,1-9.17,0,7.08,7.08,0,0,1-1.59-5,7,7,0,0,1,1.6-5,7,7,0,0,1,9.17,0A7.05,7.05,0,0,1,712.61,285.5Zm-9.47,0a5.4,5.4,0,0,0,.83,3.27,2.87,2.87,0,0,0,2.46,1.11q3.3,0,3.3-4.38t-3.28-4.39a2.89,2.89,0,0,0-2.47,1.11A5.36,5.36,0,0,0,703.14,285.5Z"/><path class="cls-3" d="M736.56,279v8.4a4.87,4.87,0,0,1-.65,2.52,4.24,4.24,0,0,1-1.86,1.66,6.71,6.71,0,0,1-2.87.57,5.48,5.48,0,0,1-3.89-1.28,4.55,4.55,0,0,1-1.39-3.51V279h2.75V287a3.32,3.32,0,0,0,.6,2.2,2.5,2.5,0,0,0,2,.71,2.47,2.47,0,0,0,2-.71,3.39,3.39,0,0,0,.6-2.22V279Z"/><path class="cls-3" d="M758.39,288.4a3.36,3.36,0,0,1-1.26,2.77,5.46,5.46,0,0,1-3.52,1,8.3,8.3,0,0,1-3.68-.78v-2.55a15.19,15.19,0,0,0,2.23.82,6.52,6.52,0,0,0,1.66.24,2.28,2.28,0,0,0,1.39-.35,1.18,1.18,0,0,0,.48-1,1.11,1.11,0,0,0-.21-.67,2.5,2.5,0,0,0-.62-.58c-.28-.18-.84-.47-1.69-.88a8.11,8.11,0,0,1-1.78-1.07,3.94,3.94,0,0,1-.95-1.2,3.37,3.37,0,0,1-.36-1.6,3.34,3.34,0,0,1,1.17-2.7,4.85,4.85,0,0,1,3.23-1,7.62,7.62,0,0,1,1.93.24,13.39,13.39,0,0,1,1.92.67l-.89,2.14a13.07,13.07,0,0,0-1.71-.59,5.72,5.72,0,0,0-1.34-.17,1.79,1.79,0,0,0-1.2.36,1.29,1.29,0,0,0-.25,1.59,1.93,1.93,0,0,0,.54.52,17.89,17.89,0,0,0,1.74.91,6.83,6.83,0,0,1,2.5,1.75A3.4,3.4,0,0,1,758.39,288.4Z"/><path class="cls-3" d="M780.83,292h-7.47V279h7.47v2.25h-4.72v2.85h4.4v2.26h-4.4v3.34h4.72Z"/><path class="cls-3" d="M533.57,191.42h-9.82a5.34,5.34,0,0,0-5.34,5.34v42a5.34,5.34,0,0,0,5.34,5.34h9.82a15.16,15.16,0,0,0,10.27-26.33,15.17,15.17,0,0,0-10.27-26.35Zm0,30.36a7.15,7.15,0,1,1,0,14.3h-7.14V199.44h7.14a7.16,7.16,0,0,1,0,14.32,4,4,0,0,0,0,8Z"/><path class="cls-3" d="M728.84,199.44A7.16,7.16,0,0,1,736,206.6a4,4,0,0,0,8,0,15.18,15.18,0,1,0-30.36,0c0,8.67,8,12.31,13.3,14.72l.33.15c6.83,2.85,8.7,4.46,8.7,7.47a7.16,7.16,0,0,1-14.31,0,4,4,0,1,0-8,0,15.18,15.18,0,0,0,30.36,0c0-9.18-8.21-12.6-13.52-14.82l-.21-.1c-5.2-2.36-8.61-4.16-8.61-7.42A7.17,7.17,0,0,1,728.84,199.44Z"/><path class="cls-3" d="M837.64,221.78a4,4,0,0,0,0-8H819.31V199.44h18.33a4,4,0,0,0,0-8h-21a5.35,5.35,0,0,0-5.35,5.34v42a5.35,5.35,0,0,0,5.35,5.34h21a4,4,0,0,0,0-8H819.31v-14.3Z"/><path class="cls-3" d="M635,194.36a4,4,0,0,0-7.54,0l-16,44.37a4,4,0,0,0,7.55,2.72l1.82-5h20.86l1.82,5a4,4,0,0,0,3.77,2.65,3.83,3.83,0,0,0,1.36-.24,4,4,0,0,0,2.41-5.13Zm-11.3,34,7.53-20.86,7.53,20.86Z"/></g></g></svg>